<?xml version="1.0" standalone="no"?>
<!DOCTYPE svg PUBLIC "-//W3C//DTD SVG 20010904//EN"
 "http://www.w3.org/TR/2001/REC-SVG-20010904/DTD/svg10.dtd">
<svg version="1.0" xmlns="http://www.w3.org/2000/svg"
 width="1000.000000pt" height="1000.000000pt" viewBox="0 0 1000.000000 1000.000000"
 preserveAspectRatio="xMidYMid meet">
<metadata>
Created by potrace 1.11, written by Peter Selinger 2001-2013
</metadata>
<g transform="translate(0.000000,1000.000000) scale(0.100000,-0.100000)"
fill="#000000" stroke="none">
<path d="M2318 9585 c-1 -2 -34 -6 -73 -10 -38 -3 -72 -8 -75 -10 -3 -1 -27
-6 -55 -9 -27 -4 -100 -20 -161 -36 -579 -153 -1064 -549 -1333 -1088 -27 -53
-52 -108 -56 -122 -4 -14 -11 -29 -15 -35 -8 -11 -63 -178 -81 -245 -15 -59
-16 -65 -41 -205 l-21 -120 -1 -2665 c0 -2409 2 -2777 19 -2860 2 -13 7 -42
11 -64 3 -22 18 -90 34 -151 89 -353 276 -681 535 -940 144 -144 236 -219 385
-311 211 -131 527 -251 735 -280 28 -3 59 -8 70 -10 11 -3 47 -7 80 -11 33 -3
1266 -6 2740 -7 2510 0 2687 1 2790 18 178 28 376 82 482 131 17 8 35 15 39
15 14 0 205 100 287 151 125 78 241 172 368 298 135 135 212 235 322 413 121
197 231 507 263 743 3 28 9 59 12 70 10 32 11 5393 2 5460 -5 33 -12 87 -15
120 -4 33 -9 63 -11 66 -2 3 -6 21 -9 40 -10 60 -35 151 -66 242 -222 659
-774 1175 -1442 1346 -62 16 -130 32 -152 35 -22 4 -51 9 -65 11 -14 2 -47 8
-75 12 -48 7 -5419 15 -5427 8z m5457 -164 c429 -67 796 -251 1095 -551 316
-315 517 -737 559 -1170 9 -95 7 -5401 -2 -5440 -3 -14 -8 -43 -11 -65 -9 -76
-45 -224 -75 -315 -143 -425 -428 -788 -812 -1033 -51 -32 -186 -103 -269
-140 -140 -63 -386 -127 -550 -143 -97 -9 -5321 -10 -5420 -1 -130 13 -354 62
-435 97 -11 5 -38 15 -60 22 -57 18 -238 108 -320 158 -168 103 -361 272 -487
427 -50 61 -168 228 -168 237 0 2 -15 30 -33 63 -95 169 -163 369 -212 621 -2
13 -7 58 -11 100 -9 89 -10 5320 -2 5402 37 370 175 712 404 1006 197 254 490
477 784 598 60 24 239 84 270 89 14 3 63 12 109 21 46 9 113 19 150 22 36 4
67 7 69 9 1 1 1205 1 2675 0 2078 -1 2690 -4 2752 -14z"/>
<path d="M5394 8031 c-17 -10 -40 -32 -51 -48 -15 -22 -63 -167 -80 -238 -2
-11 -9 -33 -88 -305 -31 -107 -58 -202 -60 -210 -2 -8 -17 -60 -33 -115 -17
-55 -65 -219 -107 -365 -118 -409 -162 -558 -226 -780 -33 -113 -62 -213 -64
-223 -2 -10 -15 -55 -29 -100 -13 -45 -55 -185 -91 -312 -37 -126 -91 -315
-122 -420 -30 -104 -57 -197 -59 -205 -4 -18 -9 -37 -122 -425 -158 -545 -222
-764 -298 -1030 -86 -295 -122 -420 -201 -690 -108 -374 -133 -464 -133 -489
0 -17 15 -41 43 -70 42 -44 51 -48 207 -90 30 -8 98 -27 150 -41 52 -15 102
-29 110 -31 8 -2 94 -26 190 -53 96 -27 187 -52 201 -55 39 -6 103 27 126 65
23 37 24 43 148 474 48 165 127 440 177 610 49 171 98 339 108 375 10 36 41
144 70 240 28 96 53 182 55 190 3 14 75 264 150 520 19 63 72 248 119 410 93
323 158 550 213 735 19 66 37 129 40 140 5 19 34 116 188 650 77 266 94 324
100 345 2 8 15 53 28 100 14 47 87 298 161 558 75 260 141 484 146 498 30 77
-28 164 -125 189 -16 5 -34 9 -40 11 -106 31 -441 132 -505 151 -146 44 -154
45 -210 50 -42 3 -62 -1 -86 -16z"/>
<path d="M2938 6700 c-15 -4 -35 -14 -46 -21 -15 -11 -214 -194 -281 -259 -9
-9 -56 -54 -106 -100 -90 -83 -179 -167 -331 -310 -170 -161 -347 -326 -373
-350 -15 -14 -92 -86 -171 -161 -80 -75 -157 -147 -171 -160 -80 -72 -281
-262 -334 -315 -48 -47 -63 -70 -68 -100 -13 -79 8 -111 177 -269 61 -57 313
-293 332 -310 11 -11 81 -76 154 -145 73 -69 152 -142 174 -164 23 -21 90 -83
149 -139 143 -134 160 -150 327 -307 79 -74 158 -148 175 -163 16 -16 80 -75
140 -132 61 -57 130 -122 155 -145 53 -50 95 -70 145 -70 51 0 81 19 152 97
34 37 86 93 115 124 29 31 105 112 169 180 64 68 140 149 168 179 29 30 57 66
63 80 14 35 12 94 -5 127 -16 30 -17 31 -207 198 -69 60 -127 112 -130 115 -3
3 -39 34 -80 70 -41 36 -77 67 -80 70 -3 3 -59 52 -125 110 -66 58 -122 107
-125 110 -3 3 -59 52 -125 110 -66 58 -122 107 -125 110 -3 3 -38 34 -78 69
-61 53 -71 67 -59 76 12 8 72 61 161 140 44 39 140 124 301 265 28 25 85 75
126 111 41 36 92 81 114 100 22 19 42 36 45 39 3 3 46 41 95 84 286 251 282
247 299 287 22 51 6 119 -38 165 -6 6 -63 66 -126 134 -153 163 -168 179 -290
310 -122 132 -151 160 -165 161 -5 0 -23 2 -40 4 -16 1 -42 -1 -57 -5z"/>
<path d="M6964 6695 c-23 -10 -159 -146 -315 -316 -50 -55 -245 -263 -260
-278 -50 -49 -64 -112 -39 -176 11 -29 35 -53 151 -155 224 -196 338 -296 369
-324 19 -17 91 -81 160 -141 69 -60 130 -114 136 -120 6 -5 37 -32 69 -60 32
-27 63 -54 69 -60 17 -16 180 -158 189 -166 5 -3 -43 -51 -105 -105 -62 -54
-115 -101 -118 -104 -3 -3 -43 -39 -90 -80 -47 -41 -90 -79 -96 -84 -6 -6 -24
-22 -40 -35 -28 -24 -257 -225 -319 -280 -16 -15 -68 -60 -115 -101 -47 -41
-90 -79 -96 -85 -6 -5 -41 -37 -78 -69 -75 -66 -96 -98 -97 -153 -2 -53 12
-79 73 -144 29 -31 103 -110 163 -175 61 -65 127 -136 148 -158 21 -23 79 -85
129 -138 93 -100 118 -115 183 -109 40 4 73 22 121 68 45 42 259 242 314 294
19 18 69 64 110 103 103 97 336 315 369 346 26 24 251 235 337 315 23 22 99
94 169 160 71 66 137 128 149 138 24 21 146 137 254 240 85 82 103 122 83 189
-13 44 -32 63 -206 227 -91 84 -206 191 -520 486 -93 88 -175 164 -181 170 -6
5 -73 69 -150 140 -76 72 -150 141 -165 155 -15 14 -87 81 -160 150 -73 69
-145 136 -160 150 -15 14 -82 77 -149 140 -67 63 -134 123 -149 132 -35 22
-100 29 -137 13z"/>
</g>
</svg>
