<?xml version="1.0" encoding="utf-8"?>
<!-- Generator: Adobe Illustrator 19.0.0, SVG Export Plug-In . SVG Version: 6.00 Build 0)  -->
<svg version="1.1" id="Layer_1" xmlns:rdf="http://www.w3.org/1999/02/22-rdf-syntax-ns#" xmlns:svg="http://www.w3.org/2000/svg"
	 xmlns="http://www.w3.org/2000/svg" xmlns:xlink="http://www.w3.org/1999/xlink" x="0px" y="0px" width="279px" height="282px"
	 viewBox="-14 335 279 282" style="enable-background:new -14 335 279 282;" xml:space="preserve">
<style type="text/css">
	.st0{fill:#E3E3E3;}
	.st1{fill:#B68263;}
	.st2{fill:#E0B5A1;}
	.st3{fill:#745E4C;}
	.st4{fill:#755846;}
	.st5{fill:#786155;}
	.st6{fill:#796151;}
	.st7{fill:#6B4F3C;}
	.st8{fill:#F5F5F5;}
	.st9{fill:#929084;}
	.st10{fill:#9E9B8D;}
	.st11{fill:#D7D7D7;}
	.st12{fill:#FAFAFA;}
	.st13{fill:#2F5455;}
	.st14{fill:#FDFDFD;}
	.st15{fill:#56A3A6;}
	.st16{fill:#334F4E;}
	.st17{fill:#442F22;}
	.st18{fill:#291D18;}
	.st19{fill:#71574A;}
	.st20{fill:#A67A5E;}
	.st21{fill:#030101;}
	.st22{fill:#5E3723;}
	.st23{fill:#88553D;}
	.st24{fill:#7F5D44;}
	.st25{fill:#19120E;}
	.st26{fill:#6A4A39;}
	.st27{fill:#6D4638;}
	.st28{fill:#22140F;}
	.st29{fill:#D5A28C;}
	.st30{fill:#644E3D;}
	.st31{fill:#A98A73;}
	.st32{fill:#5A3931;}
	.st33{fill:#6D4A3C;}
	.st34{fill:#AC9187;}
	.st35{fill:#A37055;}
	.st36{fill:#CFA595;}
	.st37{fill:#DBA891;}
	.st38{fill:#C99A89;}
	.st39{fill:#5F4538;}
	.st40{fill:#1D110C;}
	.st41{fill:#080504;}
	.st42{fill:#725947;}
	.st43{fill:#674A40;}
	.st44{fill:#886559;}
	.st45{fill:#0B0706;}
	.st46{fill:#925B45;}
	.st47{fill:#3F2C22;}
	.st48{fill:#523F33;}
	.st49{fill:#AB8064;}
	.st50{fill:#0F0906;}
	.st51{fill:#221813;}
	.st52{fill:#775546;}
	.st53{fill:#17130F;}
	.st54{fill:#211813;}
	.st55{fill:#0F0B08;}
	.st56{fill:#A4FEFF;}
	.st57{fill:#211211;}
	.st58{fill:#584433;}
	.st59{fill:#3A2B21;}
	.st60{fill:#150F0B;}
	.st61{fill:#604031;}
	.st62{fill:#3D2B20;}
	.st63{fill:#F9FBFC;}
	.st64{fill:#001E25;}
	.st65{fill:#503527;}
	.st66{fill:#18110D;}
	.st67{fill:#A07E63;}
	.st68{fill:#15100D;}
	.st69{fill:#AA7D64;}
	.st70{fill:#2A231E;}
	.st71{fill:#3A2F29;}
	.st72{fill:#825C47;}
	.st73{fill:#003D44;}
	.st74{fill:#B37F5F;}
	.st75{fill:#003137;}
	.st76{fill:#18171E;}
	.st77{fill:#B88667;}
	.st78{fill:#34221A;}
	.st79{fill:#7A5C4B;}
	.st80{fill:#C3A494;}
	.st81{fill:#3C2C23;}
	.st82{fill:#1A1920;}
	.st83{fill:#584336;}
	.st84{fill:#413126;}
	.st85{fill:#735E4F;}
	.st86{fill:#42322A;}
	.st87{fill:#4E3D33;}
	.st88{fill:#9D7F70;}
	.st89{fill:#90756C;}
	.st90{fill:#18171D;}
	.st91{fill:#006D72;}
	.st92{fill:#002930;}
	.st93{fill:#413F3E;}
</style>
<path class="st0" d="M-10.2,336.9c0.1-0.1,0.1-0.3,0.2-0.4h-1.7v4.4C-11.3,339.6-10.8,338.3-10.2,336.9z"/>
<path d="M167.2,365.1c-0.3-1-0.1-2.1,0.6-2.8c-1.1-0.4-1.5-1.5-1.5-2.5c-0.3-0.8-0.3-1.7,0.1-2.4c-0.1-0.1-0.3-0.3-0.4-0.4
	c-0.2-0.3-0.3-0.5-0.5-0.8c0.6,1.8,0.6,3.5-1.3,4.7v-1.3h1.3v-1.3c-12.1-26.8-53.8-30.4-65.9-1.3l-0.4-0.4c-0.3,0.3-0.6,0.6-1,0.8
	c0,0.6-0.1,1.2-0.3,1.8c0,0.1,0,0.2,0,0.3c0.8,1.8,0.4,4.1-1.2,5.4c0.1-0.1,0.3-0.1,0.4-0.1l0.6,0.6l-0.6,0.6
	c2.2,3,0.6,7.9,0.6,11.5c0,9.5-0.4,19.3,1.3,28.8h-1.3c-6.6-3.6-5.4-12.6-4.5-18.6h1.3v1.3l-0.6,5.1h1.3c2.2-2.9,1-7.8-2.6-9
	c-1.1,7.4-4.4,12.9,1,19.8c1.7,2.2,4.8,2.6,6.1,5.2c2.4,4.7,2.8,10.1,5.6,14.7c7.2,11.3,20.4,18.6,33.9,14.8c3.6-1,6.3-3.7,9.7-5.2
	v-1.3l-0.6-0.6h-1.3c-2.3,1.3-5.1,2.9-6.4,5.1h-1.3c-2.2-0.9-4.1-1.2-6.4-1.3v1.3h3.2v1.3c-5-0.7-18.2-2.3-19.8-7.7
	c-12.3-1.7-12.7-17.9-14.7-26.6c-1.1-4.9-2.9-9.1-2.6-14.3c0.3-4.7,2.8-9.4,2.9-14c0-2-1.4-3.8-1.6-5.8c-0.4-5.3,1.3-10.6,3.8-15.2
	c10.4-20.4,38.3-21.1,52.9-5.1c5.5,6,6.2,13.4,8,21l0.6-0.6v-1.3l1.3-1.9h1.1C167.3,366.7,167.1,365.9,167.2,365.1z"/>
<path class="st1" d="M107.3,350l0.6,0.6l1.9-1.3l0.6,0.6l-3.2,2.6v1.3c0.6,5.8,3,10.9,1.9,16.6h-1.3v-1.3l-1.9-13.4h-1.3
	c0,4,1.7,9.1,1,12.8c-1.4,7.4-6.1,13.1-6.7,21.1c-0.6,9.3,2.6,19.1,4.4,28.2h1.9l1.3,0.6v1.3l-0.6,0.6l0.6,0.6l3.8-3.8l-0.6-0.6
	l-0.6,0.6l-0.6-0.6v-1.3l0.6-0.6h1.3l2.6,4.5h-1.9l-0.6,0.6l0.6,0.6l3.8,2.6l0.6-0.6l-0.6-0.6l1.3-3.2l0.6,0.6v1.3
	c-0.8,0.4-0.6,0.1-0.6,1.3h1.9c1.2,0.9,1.7,1.1,3.2,1.3v1.3l1.3,2.6h1.3h3.2v1.3l-1.3,1.9v1.3l0.6,0.6c2.2,0.7,3.2,1.9,4.5,3.8
	l0.6-0.6l2.6-1.3v1.3l2.6,0.6v-1.3c2-1.2,3.8-1.8,5.1-3.8l-0.6-0.6l-0.6,0.6h-1.9v-1.3c1.6-2.7,4.6-3.9,5.1-7h1.3l3.2,0.6v-1.3
	l0.6-0.6h1.3l-1.3,1.9l0.6,0.6l0.6-0.6h2.6v-1.3c-1.4-2.9-1.1-4.6-0.6-7.7h-1.3h-1.3v1.3v2.6h-1.3c-1-8.1-13.1-4.7-17.3-7.7h-1.3
	c-4.1,1.2-10.8,4.2-14.1,0.6h-1.3c-2,0.8-3.1,1.1-3.8,3.2h-1.3l-3.2-0.6v1.3h-1.9v-1.3v-3.2l0.6,1.3h1.3v-1.3v-1.3h-1.3l-0.6-2.6
	h1.9l0.6-0.6l-1.9-3.8l-0.6,0.6v1.3l-0.6-0.6l-0.6-0.6c0.3-1.3,0.4-1.6,1.3-2.6c-0.4-0.8-0.1-0.6-1.3-0.6l-1.3-14.7h1.3
	c3,0.4,5.5,2.1,8.3,3.2l0.6-0.6l-0.6-0.6h-2.6v-1.3c4.7-2,7.5-3.8,12.8-3.8V380c-3.8-1.2-6.9-0.2-10.2,1.9l-0.6-0.6l0.6-0.6l5.8-3.2
	l-0.6-0.6c-4.9,0.2-9.2,1.1-10.2,6.4h-1.3V382c2.9-6,5.9-7.8,12.2-9l-0.6-0.6l-5.8-0.6l0.6-0.6l3.2-1.3v-1.3h-1.3
	c-1.3-1.7-2.2-2.9-2.6-5.1h1.9h1.3l0.6-0.6v-1.3c-0.4-1.5-0.8-2.2-1.9-3.2V357h1.9l0.6-0.6v-1.3l-1.3,0.6h-1.9v-1.3v-1.3h1.9
	c1.5-2.5,2.4-4.7,2.6-7.7h1.3l1.9,4.5h1.3l1.9-1.3l0.6,0.6l-0.6,0.6l0.6,0.6h2.6v1.9l0.6,0.6l5.8,0.6v-1.3h-1.9v-1.3l1.3-1.9h1.3
	c1,1.5,1.5,2,3.2,2.6v-1.3c-1.2-1.3-1.9-2.3-2.6-3.8h1.9l3.8,0.6v1.3c-0.1,1.3,0.3,1.6,1.3,2.6l0.6-0.6v-1.3h1.3V348l-1.9-1.9
	l0.6-0.6c1.5,1.8,2.1,2.8,1.9,5.1h1.3c1.3,1.3,2.4,2.2,3.8,0.6l0.6,0.6v1.3c2,2,2.4,4.2,2.6,7h-1.3l-0.6,0.6l3.2,3.8l-0.6,0.6h-1.3
	l-0.6,5.8h1.9l0.6,0.6v1.3c0.6,1,0.6,0.8,0.6,1.9h-1.3h-3.2l0.6,0.6c4.8,2,7.8,3.4,10.2,8.3l-0.6,0.6l-0.6-0.6
	c-2.3-3.8-5.2-5.1-9.6-5.1v1.3c2.3,0.7,3.9,1.7,5.8,3.2l-0.6,0.6c-5.6-4.2-13.2-4.7-16.6,2.6h1.3c4,2.9,9.3,3.7,14.1,2.6v1.3
	l3.8-0.6v-1.3l0.6-0.6c1,1.2,1.9,1.9,3.2,2.6l-0.6,0.6c1,7.9-3.2,12-5.1,19.2h1.3l0.6-0.6l0.6,0.6l-1.9,2.6l0.6,0.6h1.3l2.6-1.3
	v-1.3h-1.3v-1.3h1.3v-1.3l0.6-10.2l0.6,1.3l0.6-0.6v-1.3l-0.6-3.8l0.6,0.6l1.3,3.8h1.3v-1.3c0-8.4-3-15.7-4.2-23.7
	c-0.6-4.2,1.4-8.4,0.8-12.8c-0.4-2.9-2.3-5.2-3.6-7.7h1.3C151.5,334.7,116.4,333.8,107.3,350z"/>
<path class="st2" d="M116.3,345.5c-0.3,3.3-1.5,6.1-4.5,7.7v1.3v1.3h1.3c1.2,0,0.9,0.2,1.3-0.6l0.6,0.6v1.3h-2.6v1.3
	c1.3,1.6,1.7,3.1,1.9,5.1l-0.6-0.6l-3.2,0.6v1.3c0.6,2.2,1.7,3.2,3.8,3.8v1.3l-3.8,1.3l0.6,0.6l0.6,0.6c3.8,0,9.2-1.3,12.7,0.4
	c3.7,1.7,0.6,7.2,5.8,6l0.6,0.6l-0.6,0.6h-1.3v1.3c1.4,2.9,3.2,8.5,1.6,11.5c-1.7,3.1-5.4,4.4-5.4,8.3c0.1,3.3,5.9,6.5,7.6,9.6
	l0.6-0.6v-1.3l1.3-3.2h-1.9c-2-1.5-3.8-2.2-6.4-2.6v-1.3v-1.3h1.9l0.6-0.6v-1.3h1.3c2.5,2.9,4.5,2.4,7.7,0.6v1.3c1.2,0,1,0,1.9,0.6
	l0.6-0.6c-1.3-2.8-4.2-5.4-4.9-8.4c-1.1-4.2-0.1-9-0.8-13.4h1.3c3.6-8.1,9.5-3.8,17.3-3.8v-1.3l-0.6-2.6h-1.9l-0.6-0.6
	c0.2-2.3,0.5-3.8,2.6-5.1V364c-1.3-1.2-2.3-2.2-3.2-3.8h1.3c1.3-3.3-0.7-6-1.9-9c-0.8,0.4-0.6,0.1-0.6,1.3l-7-3.2v1.3l-0.6,0.6
	c-0.9-1.5-1.2-2.2-1.3-3.8h-1.9c-1.4-0.8-2.2-0.8-3.8-0.6v1.3l2.6,3.2l-0.6,0.6h-1.3l-1.3-2.6h-1.3l-1.3,2.6l0.6,0.6h1.3v1.3H131
	l-5.1-0.6v-1.9l-0.6-0.6h-2.6l0.6-0.6v-1.3H122l-2.6,1.3l-0.6-0.6c-0.2-1.5-0.6-2.5-1.3-3.8H116.3z"/>
<path class="st3" d="M140.6,345.5v1.3l2.6,3.2l0.6-0.6V348C142.7,346.8,142.1,346.2,140.6,345.5z"/>
<path class="st4" d="M104.7,355.7h1.3l1.9,14.7h1.3c1.4-5.8-1-12.2-1.9-17.9h1.3l1.9-1.9v-1.3c-6.7,1.8-9.9,10.8-10.2,17.3
	c-0.1,1.9-0.7,5.8,1,7.1c3.8,2.9,4.6-7.2,4.2-9C104.7,361.7,104.7,358.8,104.7,355.7z"/>
<path class="st5" d="M136.7,350v1.3l0.6,1.3h1.3l0.6-0.6l-0.6-0.6L136.7,350z"/>
<path class="st6" d="M141.9,351.9v1.3h2.6v-1.3H141.9z"/>
<path class="st7" d="M158.5,351.9l-0.6,0.6c-0.3,2.8,2.4,4.9,2.8,7.7c0.6,4.2-1,8.1-0.8,12.2c0.1,3.2,1.8,7.1,2.5,10.2
	c0.8-0.4,0.6-0.1,0.6-1.3c2-1.7,1.3-5.2,1.3-7.7C164.3,366.5,163.7,357.3,158.5,351.9z"/>
<path class="st8" d="M98.3,357.6v1.3l1.3-0.6C99.2,357.5,99.5,357.6,98.3,357.6z"/>
<path class="st9" d="M164.3,359.6v1.3h1.9v-1.3H164.3z"/>
<path class="st10" d="M164.9,363.4v1.3h1.9v-1.3H164.9z"/>
<path class="st11" d="M-11.7,364.8v11.1c0.2-3.5,0.7-6.8,1.2-10.3C-11,365.5-11.4,365.1-11.7,364.8z"/>
<path class="st12" d="M94.2,366.8c-0.1,0.1-1.3,0.5-2.8,1C92.4,367.4,93.3,367.2,94.2,366.8C94.3,366.8,94.2,366.8,94.2,366.8z"/>
<path class="st13" d="M96.4,366l0.6,0.6v1.3h-1.3c1,4.2,0.6,8.5,0.6,12.8h-1.3c-8.2,0.3-7.4,13.4-5.6,19.2c1.8,5.7,5.8,6.3,8.6,10.4
	c5.7,8.3,8.5,30.8-2.4,35.6v1.3h1.3c11.6-4.5,8.3-29.8,2.4-38.2c-2.8-4.1-6.8-4.9-8.6-10.4c-1.5-4.8-1.9-18.9,6.1-14.7l0.6-0.6
	l0.6-17.3H96.4z"/>
<path class="st14" d="M169.2,368.6L169.2,368.6c0-0.2,0-0.3,0.1-0.4c-0.2-0.1-0.3-0.3-0.4-0.4c-0.6-0.2-1.3-0.4-2-0.6l-0.6,1.3
	l0.6,0.6c0.7,0.1,1.5,0.2,2.3,0.3C169.1,369.2,169.1,368.9,169.2,368.6z"/>
<path class="st14" d="M206.1,385.6c-0.4-0.4-0.7-0.8-1-1.3v-0.1c-1.3,0.3-2.7-0.5-2.9-2c-0.2-0.1-0.3-0.1-0.4-0.3
	c-0.4-0.1-1-0.2-1.3-0.4c-0.1,0-0.1,0-0.2,0c1.8,1.7,4,3.1,6.2,4.4C206.4,385.8,206.2,385.7,206.1,385.6z"/>
<path class="st14" d="M196.6,380.7L196.6,380.7c-0.3-0.4-0.3-0.8-0.1-1.1c-0.3-0.3-0.5-0.5-0.8-0.8c-0.5,0.1-1.1-0.1-1.5-0.3
	c-0.6-0.3-1.2-0.8-1.6-1.3c-0.7,0.1-1.4-0.1-2-0.4c-0.3-0.2-0.6-0.4-0.8-0.8c-0.6,0.1-1.2-0.1-1.7-0.5c0,0.1,0,0.1,0,0.2
	C191.3,377.2,194.3,378.9,196.6,380.7z"/>
<path class="st14" d="M239.6,414.3c-0.1-0.1-0.3-0.1-0.3-0.2c-0.4-0.2-0.8-0.5-1-1c-0.1-0.2-0.2-0.4-0.3-0.6
	c-0.3-0.3-0.4-0.6-0.6-0.9l-0.1-0.1c-0.8-0.4-1.6-0.9-2.4-1.3c1.7,2,3.1,4.2,3.6,6.3l1.3,0.6l0.5-0.5c-0.3-0.3-0.4-0.5-0.5-0.8
	C239.5,415.4,239.5,414.9,239.6,414.3z"/>
<path class="st14" d="M206.9,386.1c1.2,0.6,2.4,1.3,3.6,1.9l0,0c-0.3-0.1-0.4-0.3-0.6-0.5c-0.4-0.1-1-0.3-1.4-0.8
	c-0.2-0.2-0.3-0.3-0.4-0.5C207.7,386.3,207.3,386.3,206.9,386.1z"/>
<path class="st15" d="M98.5,410.3c-2.6-4.6-7.4-5.6-9.2-11.7c-1.9-6.6-1.6-17.8,7-17.9v-12.2h-1.3C72.8,370.3,49.1,385,32.4,399
	c-5.5,4.7-14.7,11.6-16.6,18.8h-1.3l-0.6-0.6l0.6-0.6v-1.3h-1.3l-1.9,1.3c1.3,4.1-2.2,7.1-4.3,10.4c-4.2,6.7-7.9,14.1-10.6,21.6
	c-1.3,3.7-2,8.8-5.6,10.9v1.3l0.6,1.9h-1.3c-3.1,13-2.8,28.3-1.9,41.6c0.1,0.6,0.1,1.5,0.1,2.4c0.1,0.1,0.1,0.2,0.1,0.3
	c0.1,0.1,0.1,0.3,0.1,0.4c0.1,0.2,0.2,0.4,0.2,0.6c0.1,0.2,0.2,0.4,0.2,0.7c0.1,0.2,0.1,0.4,0.1,0.6c0.1,0.2,0.1,0.4,0.1,0.6
	c0.1,0.2,0.1,0.4,0.1,0.6c0.1,0.3,0.1,0.5,0.1,0.7c0.1,0.3,0.2,0.6,0.1,1c0.1,0.2,0.1,0.4,0.1,0.6c0,0.1,0,0.1,0,0.2
	c0.1,0.1,0.1,0.2,0.1,0.3c0,0.1,0,0.1,0,0.2c0,0.1,0,0.1,0,0.1c0,0.2,0,0.3-0.1,0.4c0.1,0.2,0.1,0.4,0,0.6c0,0.1,0,0.2,0,0.3
	c0,0.1,0,0.3,0,0.4c0,0.1,0,0.1,0,0.1c0.3,0.8,0.8,1.5,1.3,2l-0.3,0.3c0.1,0.3,0,0.6-0.2,1c0,0.1,0,0.2-0.1,0.3
	c0.1,0.6,0.3,0.7,1.2,1.2l-0.6,0.6v1.3h1.3c6.5,15.9,13.5,30,22.4,44.8l0.6-0.6c3.7-29.5,4.3-69.8,28.2-90.8
	c11.8-10.4,28.7-16.3,42.2-24.1c5.1-2.9,12.5-3.8,15.8-9.5C105.6,434.4,102.5,417.5,98.5,410.3z"/>
<path class="st16" d="M165.5,368.5v19.8l0.6-0.6c1.4,0.3,1.8,0.3,3.2,0l0.6,0.6l-1.3,0.6v1.3l0.6-0.6c1,5.9,2,11.9-3.2,16v1.3h1.3
	l0.6,0.6c-0.8,0.4-0.6,0.1-0.6,1.3c-9.2,2.3-9.7,20-9.6,28.2c0,4.9,0.8,10,6.4,10.9l-0.6-0.6c-9.9-10.9-1-22.5,0-34.6
	c9.2-1,9-10.8,9-17.9c0-4.6,0.6-9.2-5.1-9.6v-1.3c0-3.7-1-9.1,1.3-12.2l-0.6-0.6L165.5,368.5z"/>
<path class="st17" d="M164.3,369.2c0,15.9-0.1,31.2-4.4,46.7c-1.7,6.3-4.7,14.7-12.2,15.4v1.3l1.3,1.9c3.1-1.2,4.9-3.4,7-5.8
	l0.6,0.6l-0.6,0.6c0,7.5,2.5,14.6,2.6,21.8l0.6-0.6l0.6-2.6h1.3l2.6,0.6l-0.6-0.6c-12.6-13.7,0.5-35.4,2.6-51.2l0.6,0.6h1.9v-1.3
	v-3.8h-1.3v1.9h-1.3v-1.3C165,385.8,168.6,376.1,164.3,369.2z"/>
<path class="st18" d="M104.7,383.2h1.3c3-8.8,10.9-6.6,17.9-5.8v-1.9l0.6-0.6h1.3v1.3c-0.2,1.7-0.1,2.3,0.6,3.8l-0.6,0.6
	c-5.2-3.3-10.4-3.3-15.4,0.6l0.6,0.6c7.6-3.5,9.5-1.2,16.6,1.9v-1.3h1.3v3.2l0.6-0.6c1-2.8-1.2-4.1-2.2-6.4
	c-0.9-1.9-0.6-3.8-2.4-5.2C117.9,367.9,105.9,375.5,104.7,383.2z"/>
<path class="st15" d="M261.5,465.8c0.3-1.7,0.6-2.7-0.6-3.8l0.6-0.6c-0.3-1.3-0.1-1.3-1.3-1.9l0.6-0.6c-0.1-0.7-0.2-1.4-0.4-2.2
	c0-0.1,0-0.1,0-0.1c-0.5-2.6-1.4-5.2-3.5-6.7l0.4-0.4c-0.3-0.5-0.6-1-0.8-1.5h-0.3l0.2-0.2c-0.1-0.3-0.3-0.6-0.4-1
	c-0.2-0.5-0.2-0.9-0.1-1.3c-0.3-0.3-0.6-0.5-1-0.8l0.6-0.6c-0.4-0.8-0.1-0.6-1.3-0.6l0.6-0.6v-1.3l-0.6-0.6h-1.3l0.6-0.6
	c-0.8-2.4-1.6-4.4-3.8-5.8l0.6-0.6c-0.4-0.8-0.1-0.6-1.3-0.6l0.6-1.3h-1.3l0.6-1.3h-1.3c-0.3-1.3-0.1-1.3-1.3-1.9l0.6-0.6
	c-0.8-1.3-1.2-1.8-2.6-2.6l0.6-0.6l-1.9-1.3l0.6-0.6l-1.9-1.3l0.6-0.6c-0.6-1.1-0.6-1.3-0.6-2.6l-0.6-0.6
	c-5.4,1.9-15-12.8-19.2-16.4c-11.1-9.7-23.1-17.3-36.5-23.5c-5.8-2.7-12-6-18.6-6.1v13.4c5.4,0.8,5.1,5.1,5.1,9.6
	c0,7.2-0.2,16.1-9,17.9c-1.3,9.6-8.8,21.6-3.2,31.4c3.3,5.9,16.4,9.5,22.4,12.4c10.9,5.4,22.1,13.6,31.4,21.5
	c4.1,3.5,8.8,7.2,11.2,12.2c8.1,16.8,8.1,35.1,9.9,53.1c0.6,6.3-0.3,18.6,3.3,23.7l0.6-0.6v-1.3l-0.6-1.3l0.6-0.6l2.6,1.3l0.3-0.3
	c0,0,0,0,0-0.1c0.1-0.1,0.2-0.3,0.3-0.4l-0.6-0.5c4.1-9.3,9.9-17.9,13.6-27.5c1.6-4.1,2.4-10.4,6.3-12.8v-1.3l-0.6-1.9h1.3l0.4-0.9
	c0-0.2,0.1-0.4,0.1-0.6c-0.3-0.6-0.1-0.4-1.2-0.4v-1.3h1.3v-1.3c2.4-16.6,0.4-32.8,0-49.3H261.5z"/>
<path class="st19" d="M123.3,372.4l0.6,0.6l2.6,1.9l0.6-0.6C125.9,372.9,125.1,372.6,123.3,372.4z"/>
<path class="st20" d="M138.7,373l-0.6,0.6c-1.2,1.7-1.2,3.1-1.3,5.1h-1.3l-0.6,0.6v1.3c0.6,1,0.6,0.8,0.6,1.9l0.6-0.6v-1.3l0.6-0.6
	h1.3c0.5-1.9,0.4-3.2,0-5.1h1.3v-1.3L138.7,373z"/>
<path class="st21" d="M139.3,373v1.3l-1.3,0.6v1.3c0.6,1,0.6,0.8,0.6,1.9h1.3l0.6-3.8h1.3v1.3v2.6h1.3c6.3,0,11.8,0.4,15.4,6.4h1.3
	v-1.3C156.3,376.3,146.8,373.5,139.3,373z"/>
<path class="st22" d="M140.6,374.3l-0.6,0.6c-0.2,1.5-0.4,2-1.3,3.2v1.3l0.6,1.3h1.3c3.3-1.4,6.8-1.3,10.2-1.9l-0.6-0.6h-8.3v-1.9
	v-1.9H140.6z"/>
<path class="st23" d="M124.6,374.9l-0.6,0.6v1.9h-1.3c-3.6-1.5-7.7-1.8-11.5-0.6l0.6,0.6h1.3l3.8-0.6l-1.3,0.6l0.6,0.6
	c3.7,0,6.3,1.1,9.6,2.6l0.6-0.6c-0.5-1.8-0.6-3.3-0.6-5.1H124.6z"/>
<path class="st24" d="M127.8,379.4l0.6,1.3l0.6,0.6V380h1.9v-1.3L127.8,379.4z"/>
<path class="st25" d="M136.1,380c-0.6,4.4-1,9.1,0.4,13.4c1.4,4.4,6.3,7.6,1.5,11.5v1.3h1.3c6.4-4.7-2.6-15.5-2.6-22.4l0.6,0.6
	c7.1-3.3,9.3-4.7,16.6-0.6l0.6-0.6c-4-4.7-10-4.3-15.4-2.6v-1.3L136.1,380z"/>
<path class="st26" d="M121.4,380v1.3h-1.3l0.6,0.6l0.6,0.6l4.5,1.3v1.3c-0.9,2.5-1.2,5.1-0.6,7.7h1.3v-1.3c0.2-2.4,0.7-3.6,2.6-5.1
	l0.6,0.6l1.3,5.8l0.6-0.6l-1.3-7l-0.6,0.6l-0.6-0.6v-2.6h-1.3v1.3h-1.3C125,382,123.6,380.9,121.4,380z"/>
<path d="M111.1,385.2h1.3l2.6-2.6l0.6,0.6v1.3c1.7,1.7,6.1,1.9,4.7-1.7C118.7,378.8,112,382.5,111.1,385.2z"/>
<path class="st27" d="M90.7,387.7l1.3-0.6l1.9-1.9l-0.6-0.6l0.6-0.6h1.3l0.6,0.6l0.6-0.6C93,380.4,91,384.2,90.7,387.7z"/>
<path class="st28" d="M122,382v1.3l3.2,1.9l0.6-0.6l-0.6-0.6L122,382z"/>
<path class="st29" d="M114.3,382.6l-0.6,0.6c0.4,1.5,0.8,2.1,1.9,3.2l-1.3,0.6l0.6,1.9h-1.3c-3.5-2.4-7.9-4.4-12.2-4.5v1.3
	c1.4,7.4,0.5,13.2,5.1,19.8l-0.6,0.6h-1.3l-0.6,0.6v1.3l0.6,0.6h1.3v2.6h-1.3v-1.3l-0.6,0.6v3.8h1.3c0.8-0.4,0.6-0.1,0.6-1.3h1.3
	l3.2,0.6V412c2.6-0.6,6.6-2.9,9-1.9l0.6-0.6v-1.3l0.6-0.6l0.6,0.6h1.3v-1.3h3.8l0.6-0.6l-0.6-0.6c-3-2.8-2.6-5.2-2.6-9l-2.6,1.3
	l-0.6-0.6l0.6-0.6c1.8-2.4,0.9-5.3,3.8-7c0.3-3.6-0.7-5.2-3.8-7l-0.6,0.6v1.3c-2.7,1.7-4.2,1.2-5.1-1.9H114.3z"/>
<path class="st30" d="M134.8,382.6v1.3v1.3l0.6-0.6L134.8,382.6z"/>
<path d="M139.3,384.5v1.3h1.3l3.2-2.6l0.6,0.6c0.6,3.8,3.9,4.6,5.1,0.6h1.3l1.3,3.8l3.2,0.6l0.6-0.6
	C152.9,382,144.8,381.8,139.3,384.5z"/>
<path class="st31" d="M93.2,383.9l0.6,1.3c3.5,5.2,2.1,10.9,3.2,16.6h-1.3c-1.2,2.9,0.3,4.2,3.2,4.5V405c-1.7-7.1-1-14-0.6-21.1
	h-1.3H93.2z"/>
<path class="st32" d="M110.5,383.9l-0.6,0.6l-1.3,0.6v1.3l6.4,2.6v-1.3l-0.6-0.6h1.3l-0.6-1.3l-1.3-1.9l-2.6,1.3
	C111.1,383.9,111.3,384.3,110.5,383.9z"/>
<path class="st33" d="M136.7,383.9c0,4.9,0.3,9.2,3.8,12.8l0.6-0.6v-1.3l-2.6-5.8l0.6-0.6h1.3c4.1,2.8,7.4,3.1,12.2,1.9V389h-1.3
	c-4.9,1.4-9.4-1.3-14.1-2.6v-1.3l0.6-0.6L136.7,383.9z"/>
<path class="st34" d="M91.9,386.4l-0.6,0.6c-1,2-1.3,3.5-1.3,5.8l0.6-0.6l1.9-5.1L91.9,386.4z"/>
<path class="st35" d="M126.5,392.8h-1.3l-0.6-3.2h-1.3c-0.8,2.5-0.8,5.1-2.6,7v1.3h1.3l1.3-1.3l0.6,0.6v1.3l0.6-0.6l0.6-0.6
	c1-2,2.5-3.5,4.5-4.5v-1.3c0-1.8-0.1-3.4-0.6-5.1C126.4,387.9,126.5,390,126.5,392.8z"/>
<path class="st36" d="M93.2,387.7v1.9c-2.7,4.4-2.1,11.1,3.8,12.2v-1.3l-4.5-3.2l0.6-0.6l0.6,0.6h1.3V396h1.9v-1.3v-1.3h-1.3
	c-1,0.6-0.8,0.6-1.9,0.6v-1.3c0.5-1.7,0.6-3.3,0.6-5.1H93.2z"/>
<path class="st37" d="M156.6,387.7v1.3c-7.3,2.8-10.9,0.4-17.9-0.6v1.3c2.9,5.1,4.7,12.8,6.4,18.6l0.6,0.6h1.3
	c1.3,3.2,3.1,3.8,6.4,3.2v1.3l0.6,0.6l1.3-0.6l1.9-3.2l-0.6-0.6l-0.6,0.6h-1.3v-1.3c4.3-6.1,4.9-11.3,5.8-18.6h-1.3
	C158.4,388.9,157.9,388.5,156.6,387.7z"/>
<path class="st38" d="M165.5,394.8h1.3v-1.9h1.3v1.3v3.8h-1.3l-0.6-0.6l-0.6,0.6v1.3c-1.5,3-1.7,6.9-1.9,10.2h1.3
	c1.5-0.4,2-0.8,3.2-1.9l-0.6-0.6h-1.3v-1.3h1.3c1.7-2.4,3.3-4.6,3-7.7c-0.3-3.1-2.4-6.3-0.4-9v-1.3h-1.3
	C164.3,388.7,165.3,390.9,165.5,394.8z"/>
<path class="st39" d="M135.5,389v5.1l0.6-0.6C136.1,391.9,136.1,390.5,135.5,389z"/>
<path class="st40" d="M129.7,389.6v3.2h-1.3c-5.2,5.3-6.7,10.3,0.6,14.1l0.6-0.6V405c-9.6-2.9,1.1-9.7,1.3-15.4H129.7z"/>
<path class="st41" d="M169.4,389.6l-0.6,0.6c-0.8,0.4-0.6,0.1-0.6,1.3l0.6,0.6h1.3v-1.3C170,389.7,170.2,390,169.4,389.6z"/>
<path class="st42" d="M161.1,393.5v1.3l0.6,4.5l-0.6-1.3l-0.6,0.6v1.3c0.6,3.5-1.2,6.3-0.6,9.6h-1.3v1.3h1.3v1.3h-1.3l-5.1,1.9v-1.3
	h-2.6v1.3c1.2,2.2,1,6.2,1.9,9l-3.2,0.6l-0.6-0.6l1.3-1.3l-0.6-0.6h-1.3v1.9H147l-3.2-0.6v1.9c-2.9,1.8-4.7,2.9-5.1,6.4h1.3l1.3-0.6
	l0.6,0.6c-1.7,1.9-4.3,2.7-5.1,5.1h-1.3h-1.3v-1.3l-0.6-0.6h-1.3c-0.6,1-0.6,0.8-0.6,1.9l-0.6-0.6c-1.4-2.1-2.7-3.1-5.1-3.8V430h1.3
	c-0.4-0.8-0.1-0.6-1.3-0.6l1.3-1.9l-0.6-0.6h-1.3h-2.6v-1.3l-1.3-2.6h-1.9l-3.2-1.9l-0.6,0.6v1.3h-1.3l-0.6-0.6
	c-1-1.1-1.7-1.5-3.2-1.9v-1.3h1.9l0.6-0.6v-1.3c-1.5-1.5-2.4-2.2-4.5-2.6v1.3v1.3l0.6-0.6h1.3v1.3c-1.5,1-2.3,1.7-3.2,3.2H106v-1.3
	c0.8-0.4,0.6-0.1,0.6-1.3l-0.6-0.6h-1.9v1.3c2.4,5.2,5.8,11.7,12.2,12.2v1.9c4.2,3.6,14.3,5.4,19.8,5.8v-1.3h-3.2v-1.3l7.7,1.3v-1.3
	c14.1-4.9,17.5-14,20.7-27.5C162.7,403.1,165,398.9,161.1,393.5z"/>
<path class="st43" d="M95.1,396v1.3l-1.9-0.6l-0.6,0.6l0.6,0.6h3.2v-1.3C96,395.9,96.3,396,95.1,396z"/>
<path class="st44" d="M148.9,396.7v1.3l0.6,0.6l0.6-0.6l0.6-0.6l-0.6-0.6H148.9z"/>
<path class="st45" d="M94.5,398l0.6,1.3l1.3,0.6l0.6-0.6l-0.6-0.6L94.5,398z"/>
<path class="st46" d="M129.1,398.6v1.3l-2.6,0.6l0.6,0.6c4.7,0.6,8.1,1.2,12.8,0l-0.6-0.6c-1-0.3-1-0.3-1.3-1.3h-1.3
	C133.7,401.4,132.2,399.9,129.1,398.6z"/>
<path class="st47" d="M102.8,399.9v1.3l0.6,2.6l0.6-0.6v-3.2H102.8z"/>
<path class="st48" d="M140.6,400.5l-0.6,0.6c-1.3,2.2-3.5,2.8-5.8,3.8l0.6,0.6l0.6,0.6l0.6,0.6l-0.6,0.6v2.6h1.9
	c3.3,3.5,9.8,2.3,10.9,7.7h1.3c0.1-1.9,0.6-3.4,1.3-5.1l-0.6-0.6l-0.6,0.6l-1.9-3.2h-1.3l-0.6,0.6l0.6,0.6v1.3h-1.3h-1.3v-1.3
	c0.8-0.4,0.6-0.1,0.6-1.3l-0.6-0.6l-0.6,0.6v1.3h-1.3c-0.9-2-1.9-3.4-3.8-4.5V405c1.8-1,2.4-1.9,3.2-3.8L140.6,400.5z"/>
<path class="st49" d="M142.5,400.5v1.9c-1,1.4-1.7,2.3-3.2,3.2v1.3l2.6,3.8h1.3v-1.3l0.6-0.6l0.6,0.6l-0.6,2.6h1.3h1.3v-1.3
	l-0.6-1.3h1.3l-0.6-0.6h-1.3l0.6-0.6v-1.3C144,404.9,143.5,402.8,142.5,400.5z"/>
<path class="st50" d="M126.5,401.2v1.3c5.2,3.2,8,2.3,13.4,0.6v-1.3l-0.6-0.6H138C134.1,402.8,130.5,401.3,126.5,401.2z"/>
<path class="st51" d="M166.2,401.2l-0.6,1.3v1.3h1.3l1.3-1.9l-0.6-0.6H166.2z"/>
<path class="st52" d="M127.1,405.6v1.3c-1.9-0.3-3.2-0.3-4.5,1.3h-1.3c-0.4-0.8-0.1-0.6-1.3-0.6v1.9l-0.6,0.6v-1.3l-0.6,0.6
	l-0.6,0.6l0.6,3.2c0.8-0.4,0.6-0.1,0.6-1.3l3.2,0.6l0.6-0.6H122v-1.3l0.6-0.6l1.9,1.3l6.4-1.3v1.3h3.8v-1.3h-1.3l-0.6,0.6l-0.6-0.6
	c-0.4-1.7-1-2.9-1.9-4.5c-0.8,0.4-0.6,0.1-0.6,1.3L127.1,405.6z"/>
<path class="st53" d="M134.8,406.3v1.3c-0.8,1-1,1.3-1.3,2.6h1.3l1.3-3.2C135.7,406.1,136,406.3,134.8,406.3z"/>
<path class="st54" d="M115.6,412l0.6,0.6l1.9,0.6l0.6-0.6l-0.6-0.6l0.6-2.6l-0.6-0.6C116.9,409.9,116.3,410.5,115.6,412z"/>
<path class="st55" d="M122,410.8v1.3h1.3l1.3-0.6v-1.3h-1.3L122,410.8z"/>
<path class="st56" d="M235.3,412l0.6,0.6L235.3,412z"/>
<path class="st57" d="M118.2,415.2v1.3c2.8,1.1,5.4-0.5,8.3-0.4c6.5,0.1,13,0.4,19.2,2.4l0.6-0.6
	C138.1,409.3,127.6,414.7,118.2,415.2z"/>
<path class="st58" d="M146.3,417.2l-0.6,1.3l1.9,1.9l0.6-0.6L146.3,417.2z"/>
<path class="st59" d="M116.3,418.4l-0.6,0.6l-0.6,2.6l1.3-0.6C116.6,419.8,116.6,419.6,116.3,418.4z"/>
<path class="st60" d="M121.4,418.4l0.6,1.3c3.1,1.2,6.3,2.3,9.6,2.6v1.3h-1.9v1.3h1.3h2.6v-1.9l0.6-0.6l3.2-0.6v-1.3h-1.3
	L121.4,418.4z"/>
<path class="st61" d="M135.5,418.4v1.3h-1.3l0.6,0.6c2.9,0.4,4.9,0.9,7-1.3l-0.6-0.6h-1.3H135.5z"/>
<path class="st62" d="M153.4,418.4l0.6,0.6l2.6,0.6v-1.3H153.4z"/>
<path class="st63" d="M260.4,456c0-0.4,0-0.7,0-1c0-0.1-0.1-0.1-0.1-0.1c-0.4-1.1-1-2-1.5-3c1,3.1,2.3,6.3,2,9.6l0.6,0.6l0.6-0.6
	c0-1-0.1-2.1-0.2-3.2C261.1,457.9,260.4,457.2,260.4,456z"/>
<path d="M241.7,419.7l0.6,0.6L241.7,419.7z"/>
<path class="st64" d="M242.3,421l0.6,0.6L242.3,421z"/>
<path class="st65" d="M104.1,422.9c0,10.5,1.4,19.8-9,25.6l0.6,0.6h1.3l3.8-1.9l0.6,0.6v1.3c-1,3.6-2.3,7.4,0.6,10.2l0.6-0.6v-1.3
	c-0.1-8.2,2-15.6,2.8-23.7C105.9,430.4,106.3,425.6,104.1,422.9z"/>
<path d="M243.6,422.9l0.6,0.6L243.6,422.9z"/>
<path class="st66" d="M149.5,424.2v1.3c-1.3,0.8-1.5,1.1-1.9,2.6h1.3l1.9-3.2C150.4,424,150.7,424.2,149.5,424.2z"/>
<path class="st67" d="M146.3,424.8v1.3l-0.6,0.6h-1.3c-0.4-0.8-0.1-0.6-1.3-0.6l-0.6,3.2l0.6,0.6h1.3l4.5-4.5l-0.6-0.6H146.3z"/>
<path d="M244.9,424.8l0.6,0.6L244.9,424.8z"/>
<path class="st68" d="M144.4,425.5v1.3h1.9v-1.3H144.4z"/>
<path class="st69" d="M105.4,426.1v1.3c0.4,10.9-4.1,21.3-2.6,32h-1.3l-0.6-1.3l-0.6,0.6v1.3l1.3,4.5h1.3l1.3-0.6v-1.3l-0.6-0.6
	l0.6-0.6h4.5V460c-1-1.3-1.2-2.2-1.3-3.8h1.3l2.6,0.6v-1.9l0.6-0.6l0.6,0.6c0.7,2.2,1.5,2.9,3.8,2.6v-1.3c-2-1.9-3.9-5.1-5.1-7.7
	h1.3c3,2.6,6.1,2.6,9.6,3.8l0.6-0.6c-0.9-1-1.3-1.3-2.6-1.9v-1.3l0.6-0.6c2,2.2,3.5,4,3.2,7l0.6,0.6c1.7,0.3,2.7,0.6,3.8-0.6h1.3
	c1,1.2,1.7,1.2,3.2,1.3l-0.6-0.6h-1.9l0.6-3.2h1.3c2.8-0.3,5.1-1.2,7-3.2l-0.6-0.6h-1.3c-7.9,2.6-7.5-0.3-14.1-3.2l-0.6,0.6l0.6,0.6
	v1.3H122c-3.4-2.8-3.9-3.8-4.5-8.3h-1.9l-0.6-3.8h-1.3c-4.8-0.8-5.8-5.6-7-9.6H105.4z"/>
<path class="st70" d="M135.5,426.1v1.3l0.6,0.6h1.3v-1.3L135.5,426.1z"/>
<path class="st71" d="M125.9,427.4v1.3l0.6,0.6l0.6-1.9H125.9z"/>
<path class="st72" d="M107.3,428v1.3c1.6,4.1,3.1,6.3,7.7,6.4c0.2,2.2,0.4,3.1,2.6,3.8c0.3,4.9,0.5,6.3,5.1,8.3l0.6-0.6V446
	l-0.6-0.6h1.3c6.3,6.2,7.4,4.2,15.4,3.2v1.3c-2.8,1.2-5.3,2.4-8.3,2.6l-0.6,2.6l0.6,0.6c5.8-0.1,10-3.6,15.4-5.1v-1.3
	c-0.8-1.7,0.5-2.8,1.3-4.5L147,444l-0.6,0.6h-1.3v-1.3c4-2.8,7.7-6.6,9-11.5h1.3v1.3l-1.9,3.2l0.6,0.6l0.6-0.6
	c1.5-2.1,1.3-4.5,1.9-7l-0.6-0.6c-9,7-22.6,16.8-34.9,10.2C115.9,436.3,112.2,431.1,107.3,428z"/>
<path class="st73" d="M248.1,430l0.6,0.6L248.1,430z"/>
<path class="st74" d="M154,431.9l-0.6,1.3c-1.9,4-4.4,7.3-8.3,9.6v1.3l0.6,0.6l0.6-0.6h1.3v1.3c-1.3,1.2-2,2.1-2.6,3.8l1.3,0.6
	l4.5-1.3l-0.6,1.3c-2,0.9-3.6,1.6-5.1,3.2l0.6,0.6l0.6-0.6h1.3v1.3l0.6-0.6l0.6-0.6l2.6-0.6v1.3l1.3,3.2h-1.3l-0.6-0.6v1.3l1.9,2.6
	l0.6-0.6l1.3-3.8h1.3h2.6v1.3l-2.6,2.6v1.3h3.2v1.3c-1,0.3-1,0.3-1.3,1.3l0.6,0.6h1.3c0.5-1.7,0.6-3.3,0.6-5.1c-1,0.3-1,0.3-1.3,1.3
	l-0.6-0.6v-1.3c0.8-0.4,0.6-0.1,0.6-1.3h1.3v1.3l0.6-0.6c0.6-2.2,1.7-3.5,3.2-5.1l0.6,1.3h1.3v-1.3l-1.9-1.3l1.3-0.6l-0.6-0.6h-1.3
	l-3.8-1.3v1.9l-0.6,1.3l-0.6-0.6c-0.1-5-1.9-10.2-2.6-15.4h-1.3L154,437l-0.6-0.6c1.2-1.5,1.7-2.6,1.9-4.5H154z"/>
<path d="M253.2,438.9l0.6,0.6L253.2,438.9z"/>
<path class="st75" d="M255.1,444l0.6,0.6L255.1,444z"/>
<path class="st76" d="M238.2,568.9c0.1-0.1,0.2-0.1,0.3-0.3v-1.1c-6.2-14.7-2.1-33.8-4.9-49.3c-1.7-9.3-4.1-22-9-30.1
	c-4.9-8.3-14.7-14.5-22.7-19.6c-12.4-7.9-23.9-17-38.4-20.7l-0.6,0.6l0.6,0.6c12.1,9.2-1.3,21.1-11.5,25.7
	c-14.7,6.7-33,3.3-46.1-5.6c-6.9-4.7-18.8-14.6-9-21.3l-0.6-0.6h-1.3c-12.9,5.8-25.2,12.5-37.8,19.1c-9.7,5.1-20.7,11.6-25.8,21.8
	c-8.2,16.3-10.5,35.3-13.1,53.1c-1,7.1-0.1,19.9-4.7,25.6l0.6,1.3l0.6,0.6l0.6-0.6l3.2,2.6l0.6-0.6l-1.9-4.5H19l1.9,3.8h1.3v-1.3
	c0.1-1.9,0.5-3.4,1.3-5.1l0.6,0.6v3.8h1.3l3.2,0.6v1.3c-0.8,0.4-0.6,0.1-0.6,1.3h1.3c2.4,0.2,3.6,0.7,5.1,2.6h1.3l-0.6-0.6v-1.3h1.3
	c2.2,1.3,7,3.5,9,1.3c3.6,2,5.1,1.8,9,1.3v-1.3l3.2-1.3l-1.3-1.3l-3.8,0.6v-1.3c1.7-0.6,3.3-1.2,5.1-1.3v-1.9
	c0.8-0.4,0.6-0.1,0.6-1.3c-3.4-0.4-4.7-2.8-7.7-3.8v-4.5h1.3c1.9,2.1,3.6,2.8,6.4,3.2v-1.3c-7-6-16.5-11.5-21.8-19.2l0.6-0.6
	c6.3,4.8,13.7,14.1,21.8,15.4v-3.8h-1.9l-7-5.8l0.6-0.6c2.2,1.5,3.8,1.9,6.4,1.9v-1.3c-1.7-6.4-9.9-11.8-14.7-16l0.6-0.6h1.3
	c2.8,3.5,7.8,7.8,12.2,9v-1.3c-1.9-3.6-8.4-11.5-12.2-12.8v-1.3l0.6-0.6l6.4,7.7h1.3l0.6-0.6l-0.6-0.6l-5.1-6.4l0.6-0.6l3.8,3.8
	l0.6-0.6l-0.6-12.8h1.3v1.3c0,3.7,0.7,6.8,1.9,10.2l0.6-0.6l1.9-9h1.3l0.6,1.3l0.6-0.6c0.5-3.3,1.1-6.8,3.8-9v-1.3
	c-2.2-2.6,0.9-4.2,3.2-5.1v-1.3l-1.3-1.3l0.6-0.6h1.3v1.9h1.3l4.5-1.3V494l-0.6-0.6h-1.3l-0.6,1.9h-1.3c-0.4-0.8-0.1-0.6-1.3-0.6
	v-1.3c1.5-2,1-4,0.6-6.4h1.3c2.2,2.9,4.4,6.1,8.3,6.4V492l-0.6-1.9l-0.6,0.6c-2.5-1.6-4.7-2.9-5.8-5.8h1.9l0.6-2.6h1.3
	c1.3,0.6,2.4,0.6,3.8,0.6v1.3c-1.7,0.5-3.3,0.6-5.1,0.6v1.3c1.7,0.8,2.6,1,4.5,0.6c0.2,2.4,0.9,4.2,1.9,6.4l-0.6,0.6h-1.3v1.3h1.3
	l3.8-1.3v-1.3l-3.8-1.9l1.3-1.3c3.5,1.3,7.6-0.4,9.6,3.2h-1.3v-1.3h-1.3v1.3c4,3.9,12.5,5.2,13.4-1.9h-1.3l-0.6,3.2h-1.3l-0.6-1.3
	h-1.3l-2.6,1.3v-4.5h-1.3l-0.6,0.6l-0.6-0.6l0.6-0.6c2.8-0.2,4-1,4.5-3.8h1.3v3.2H99l2.6-2.6l-0.6-0.6h-1.3c-1.7-2-5.8-2.4-8.3-2.6
	v-1.3c2.2,0.1,3.8,0.8,5.8,1.9l0.6-0.6v-1.3c0.1-1.7-1.1-1.7-2.6-1.9V478l3.2-0.6L99,478c0.8,1,1.2,1.1,2.6,1.3l-0.6,0.6l1.3,4.5
	h1.3l5.1-0.6v-1.3h-1.9c-1.3-2.3-3.2-3.4-5.2-5.1c-6-5.1-28-16.9-15.2-24.6c1.4-0.8,2.8-1.3,4.4-1.7v1.3c0.6,6,5.3,10.9,9.7,14.8
	c12.3,11,27.7,14,43.5,13.3v1.3c-4,1.3-7.4,4.2-11.5,4.9c-3.1,0.5-6.5-0.8-9.6-1v1.3c2.9,0.4,6.1,2.1,9,1.7
	c10-1.4,25.5-12.7,32.6-19.6c3.5-3.4,9.8-12.4,6.4-17.2l0.6-0.6c5.2,4.5,12.1,7,17.9,10.7c12.4,7.7,25.2,16.4,34.6,27.7l-0.6,0.6
	l-0.6-0.6c-1.2-1.3-2.2-1.9-3.8-2.6v-1.3l0.6-0.6h-1.3c-3.3-3.6-10.4-12.6-16-10.9l-0.6-0.6v-1.3c-2.2-2.2-4.7-4.5-7.7-2.6l-0.6-0.6
	l1.3-1.9l-0.6-0.6h-1.3c-1-1.3-1.7-1.9-3.2-2.6l-0.6,0.6v1.3h-1.3v-1.3c-0.4-2.6-7.9-8.4-10.6-7c-2.2,1.3-3.5,6.7-4.9,8.9
	c-2.6,3.9-6.8,6-9.5,9.6l0.6,0.6h1.3l-0.6,0.6v1.3c3,0.2,5.4,0.2,8.3-0.6v1.3l0.6,2.6l-0.6,0.6h-1.3l-0.6,0.6l0.6,0.6l4.5-1.3
	l-0.6-0.6h-1.3v-1.3h1.3c1.5,1,2.8,2,4.5,2.6v1.3c-0.4,1.2-0.3,1.3,0,2.6l0.6-0.6l0.6-2.6l1.9,1.9h1.3l0.6-2.6l-0.6,0.6h-1.3
	l-0.6-0.6l-1.8-2.4l5.6,1.2v-1.3l3.2-0.6v-1.3c4.9-0.7,2.2,4.5,2.6,7.7h-1.3l-1.3-0.6l-0.6,0.6l0.6,0.6l4.5,1.3l0.6-0.6l-1.3-3.2
	h1.3c0,1.2,0,1,0.6,1.9h1.3c1.3-0.6,1.7-0.6,3.2-0.6v1.3c-0.8,0.4-0.6,0.1-0.6,1.3h1.3v1.3h-3.2v-1.3l0.6-0.6l-0.6-0.6l-3.2,2.6
	l0.6,0.6h1.3v1.3l-0.6,0.6l-0.6-0.6c-1.3,0.3-1.3,0.1-1.9,1.3h-1.3l-0.6-0.6v-3.2l-0.6-0.6l-3.8,0.6v1.3l1.3,2.6h1.3l1.3-0.6v1.3
	c0.8,1.7,0.1,2.8-0.6,4.5h-1.3v-1.3l0.6-3.2h-1.9c-0.4-0.8-0.1-0.6-1.3-0.6l-0.6,0.6v1.3h1.3l0.6-0.6l0.6,0.6l-0.6,0.6l-3.8,1.9
	v-1.3l-3.2,0.6l-0.6-0.6l0.6-0.6l4.5-1.3v-1.3h-3.2v-1.9c-0.6-1-0.6-0.8-0.6-1.9h-1.3l-0.6,2.6h-1.3v-1.3l0.6-0.6l-0.6-0.6
	c-0.8,0.4-0.6,0.1-0.6,1.3h-1.3c-0.8-1.3-1.3-1.7-2.6-2.6l-0.6,0.6c1.7,2.9,4.9,4.2,6.4,7l-2.6,0.6v-1.3l-1.3-1.9h-1.3
	c-2.6,1-3.6-0.2-4.5-2.6h-1.3c-1.9-0.1-3.4-0.6-5.1-1.3l-0.6,0.6l0.6,0.6l-1.3,5.8h1.3c0.7,3.3,0.6,6.3,0.6,9.6h1.3
	c0.8-4.2,1.5-5.8,5.8-7v-1.3H168l-3.8,1.3l-0.6-0.6l-0.6-3.8h1.3c1.1,1.7,1.9,2.2,3.8,2.6v-1.3l0.6-0.6h1.3v1.9
	c1.3,0.9,2.2,1.1,3.8,1.3v1.9l1.3,3.8h1.3v-1.3l0.6-3.8h1.3c1.2,0.6,1.3,0.5,1.9-0.6h1.3l1.9,1.3l-1.3,0.6l-1.3,3.2l0.6,0.6h3.2
	l-1.3-1.9l0.6-0.6h1.3l0.6-0.6l-1.3-3.2l1.3,0.6l2.6,3.2h1.3l0.6-0.6l-1.3-2.6c1.2,0,0.9,0.2,1.3-0.6l0.6,1.3h5.1v-1.3
	c1.7-1,3.1-1.2,5.1-1.3l-0.6-3.8c1.8,1,3.1,1.2,5.1,1.3c-0.5-1.3-0.8-1.8-1.9-2.6v-1.3h1.3l3.2,0.6c0-1.2,0-1,0.6-1.9l-0.6-0.6h-1.3
	c-1.2-1.3-2.1-1.7-3.8-1.9v-1.3h1.9v-1.3c-1.6-0.8-2.6-1.4-3.8,0H200l-3.2,0.6v-1.3l3.8-1.9v-1.3h-3.2l0.6-0.6
	c3.4-2,7.8-5.2,8.3,1.3c-1.6-1.2-3.2-2.2-5.1-2.6l1.3,3.8c1.8,0.3,2.6,0.6,3.8,1.9h1.3l1.3-0.6v1.3c2.6,2,4.4,3.1,7.7,2.6v1.3h-2.6
	v1.3l0.6,0.6h-1.3l-1.3-2.6h-1.3l-0.6,0.6v1.3c-1.2,1.5-1.7,2.6-1.9,4.5h-1.3l-0.6,1.9h-1.3l-2.6-1.3l-0.6,0.6
	c1.3,1.6,2.5,2.6,4.5,3.2v-1.3c2.1-1.3,4-1.6,6.4-1.9v1.3h-1.9v1.3l1.3,3.8l-0.6,0.6h-1.3v-1.9l-1.3-3.2l-0.6,0.6
	c0,1.8,0.1,3.4,0.6,5.1l-0.6,0.6l-0.6-0.6h-1.3v1.3l2.6,0.6v8.3l-1.9-1.9v-1.3c0.8-0.4,0.6-0.1,0.6-1.3l-1.3-0.6l-1.3,1.3
	c0,6.5,0.2,12.8-0.6,19.2l-0.6-0.6l-0.6-10.9l-3.8-0.6v3.8h1.3l0.6,0.6v1.3l-1.9-1.3l-0.6,0.6c0.7,2.3,0.5,4.9,2.6,6.4v1.3l-0.6,1.9
	h-1.3v-1.3l-0.6,0.6l-0.6,14.7h1.3c1.2-4.1,3.3-7.9,3.8-12.2h1.3c0.6,1.2,0.6,1,1.9,1.3v-1.3c1.9-1.7,3.3-3.5,4.5-5.8h1.3v1.3
	c-3.3,3.2-8.6,8.2-9.6,12.8h1.3c3.6-2.2,6.7-5.3,9.6-8.3l0.6,0.6v1.3c-1.5,1.5-2.2,2.4-2.6,4.5h-1.9c-2.5,2.1-5,3.8-7,6.4l1.3,1.3
	c1,0.6,0.8,0.6,1.9,0.6v1.3l-0.6,0.6h-3.2v1.3c-1.3,1.9-1.3,3.5-1.3,5.8h1.3c2.5-3,5.8-7.9,9.6-9v-1.9c1.9-1.5,3.5-2.9,5.8-3.8v3.2
	h-1.9c-1.1,1.5-1.7,2.6-1.9,4.5h-1.9l-0.6,0.6v1.3c-7.3,4.6-9.9,9-6.4,16.6h-1.3c-2.2,3.4-5.6,6.9-6.4,10.9h1.3
	c2.5-3.4,5.9-6.8,10.2-7v1.3c-4.2,2.7-12,6.1-6.4,11.5l0.6-0.6v-1.3c6.1-2,7.9-9.3,14.1-10.9v1.3c-3.8,2.9-10.8,9.9-11.5,14.7h1.3
	l0.6-1.9h1.3c4.9,1.1,10.8-2.6,11.5-7.7h1.9c3.1-2.5,5.5-5.8,9-7.7v1.3l1.3-0.6l3.2-3.2l0.6,0.6v1.3L238.2,568.9z M177.7,478
	l0.6-0.6l0.6,0.6v1.7L177.7,478z M209.1,481.8c-0.8-0.6-1.7-1.3-2.6-1.9h1.3c0.8-0.4,0.6-0.1,0.6-1.3l0.6,0.6v1.3h1.3L209.1,481.8z"
	/>
<path class="st77" d="M91.9,453.6c0.8-0.4,0.6-0.1,0.6-1.3l3.8-0.6l0.6,4.5h-1.3l1.3,3.8h1.3v-1.3l-1.3-0.6l1.3-0.6v-1.9h1.3v1.9
	l0.6,0.6l1.3-10.9C97.7,448.6,92.6,449,91.9,453.6z"/>
<path class="st78" d="M140.6,447.9v1.3h1.3l1.3-0.6v-1.3L140.6,447.9z"/>
<path class="st79" d="M120.1,447.9v1.3l2.6,2.6l-0.6,0.6l-3.2-1.3v1.3l5.1,2.6l0.6-0.6V453C123.5,450.6,122.5,449,120.1,447.9z"/>
<path class="st80" d="M111.1,448.5v1.3c1.6,2,3,5.1,5.1,6.4v1.3c-2.4-0.1-3.2-0.9-3.8-3.2h-1.3v2.6h-1.3l-2.6-0.6v1.3
	c0.2,1.3,0.3,1.7,1.3,2.6v1.3h-1.3h-3.8l0.6,0.6v1.9c-1.2,0-0.9-0.2-1.3,0.6h-1.3v-1.9c-1-2.3-1.6-4.5-1.9-7h-1.3l-1.3,1.9
	c0.3,1,0.3,1,1.3,1.3v1.3h-1.3c-0.4-1.6-0.7-2.4,0-3.8v-1.3l-0.6-3.2h-1.3l-2.6,0.6v1.3c1.3,6.7,8,12.4,13.4,16
	c14.6,9.7,36,12.5,51.2,2.8c5.3-3.4,19.6-17.9,7.7-22l-0.6,0.6h1.3c0,1.2,0,1,0.6,1.9l-0.6,0.6l-0.6-1.3c-1,0.3-1,0.3-1.3,1.3
	c-4.7,1.3-1.5,8.2-5.8,10.2v-1.3c1-0.3,1-0.3,1.3-1.3l-0.6-0.6h-2.6v-1.3c1.4-0.8,1.9-1.7,2.6-3.2l-0.6-0.6l-0.6,0.6l-2.6-0.6
	l-0.6,0.6l-0.6,3.8l-0.6-0.6l-1.9-2.6l0.6-0.6l0.6,0.6l0.6-0.6v-1.3l-1.3-2.6h-1.3c-1.2,0.6-1.3,0.7-1.9,1.9l-0.6-1.3
	c-1.2,0-1,0-1.9,0.6l-0.6-0.6l5.8-3.8l-0.6-0.6h-1.3c-4,2.6-14.8,9.5-19.2,6.4h-1.3C124.3,457.2,115.5,449.8,111.1,448.5z"/>
<path class="st81" d="M138.7,452.4v1.3h1.3l3.2-1.9v-1.3L138.7,452.4z"/>
<path class="st82" d="M108.6,482.4v1.3l-6.4,0.6v-1.9c-0.6-1.2-0.6-1.2-0.6-2.6l-0.6-0.6h-1.3l-1.3-1.9h-1.3c-1,0.6-0.8,0.6-1.9,0.6
	v1.3h1.9c0.6,1.4,0.7,2.3,0.6,3.8c-2.2-1.2-3.9-1.9-6.4-1.9v1.3l10.2,2.6v1.3l-3.8,1.9V485h-1.3c-0.8,2.8-2.2,3.6-5.1,3.8v1.3
	l0.6-0.6h1.9v1.3v3.2h1.3l2.6-1.3v1.3h1.9v-3.2h1.3l0.6,0.6l-0.6,0.6c-0.8,6.6-10,2.9-12.8,0l0.6-0.6l0.6,1.3h1.3v-1.3
	c-2.8-2.3-6.8-1.3-10.2-1.9l-0.6,0.6c0.4,0.8,0.1,0.6,1.3,0.6c0.8,1,1.2,1.1,2.6,1.3v1.3l-5.1,1.9V494c1.2,0,1,0,1.9-0.6V492
	c-1.1-1.7-1.6-3.1-1.9-5.1h-1.3c-1.5-0.2-1.9-0.4-3.2-1.3l0.6-0.6h4.5v-1.3l-5.1-1.3v1.9l-2.6,0.6v1.3c1.5,2.3,3.6,3.9,6.4,3.8
	c0,1.2-0.2,0.9,0.6,1.3v1.9h-1.3c-3.3-1.5-4.7-5.3-8.3-6.4v1.3c0.4,2.4,0.1,4.1-0.6,6.4l1.3,0.6h1.3l0.6-0.6v-1.3h1.3l0.6,0.6v1.3
	l-5.8,1.3v-1.3l-0.6-0.6h-1.3v1.3l1.3,1.3l-0.6,0.6h-1.3c-1.5,1.7-3.6,3.3-1.3,5.1v1.3c-3.1,1.6-3.1,5.2-4.1,8.2
	c-2.6,7.8-4,19-1.7,27h1.3v-1.3c-0.1-4,2.2-8.4,5.8-10.2V526c2.7-2.5,5.4-4.5,5.8-8.3h1.3c2.2,1.2,3.7,2,4.5,4.5h-1.9l-0.6,0.6
	l0.6,0.6h1.3l0.6,0.6l-0.6,0.6h-1.3v1.3l0.6,0.6h1.3l3.2-1.9v1.3l-2.6,2.6l0.6,0.6h1.3l0.6,1.3l0.6-0.6h1.3v1.3l-1.9,3.8l0.6,0.6
	h1.3l-1.3,1.9l0.6,0.6h1.3l1.3,1.9l-0.6,0.6l-0.6-0.6h-1.9v1.3v1.3h1.3l4.5-1.3V540l-0.6-6.4h-1.3c-0.6,1-0.6,0.8-0.6,1.9h-1.3v-1.3
	l0.6-1.9h1.3c2.4,1.6,3.1,2.8,3.2,5.8h1.3l0.6-2.6l9,1.3v-1.3V533h-1.3l1.3-3.2l0.6,0.6v1.3l1.3,1.9l0.6-0.6v-1.3l0.6-0.6l0.6,0.6
	c-0.2,2.1-1,3-2.6,4.5v1.3l3.2,1.3l0.6-0.6l-1.3-2.6h1.3v-1.3l0.6,1.3h3.2v-1.3l-0.6-1.3h1.3c2.3,1.6,4.4,1.2,7,0.6v-1.3l-0.6-0.6
	l-0.6,0.6h-1.9v-1.3h2.6l-1.3-2.6l0.6-0.6h1.3v1.9l1.9,3.8h1.3l1.3-0.6l0.6,0.6l-0.6,0.6l-2.6,1.3v1.3l1.9,1.9l0.6-0.6v-1.3l2.6,1.9
	h1.3v-1.9c0.8-1.4,1.1-2.3,1.3-3.8h-1.3c-0.3,1-0.3,1-1.3,1.3l-0.6-0.6c0.8-1.2,1.1-1.8,1.3-3.2l0.6,0.6c1.3-0.3,1.3-0.1,1.9-1.3
	h1.3c2.1,4.3,4.8,3.9,9,5.1l-0.6,0.6c-2.1-0.1-3.8-0.5-5.1,1.3h-1.3h-3.2v1.3v3.2l0.6,0.6c2.2-1.3,4.5-1.7,7-1.9v1.3h-1.3l-6.4,1.9
	v1.3c1.6,0.1,2.5,0.2,3.8-0.6l0.6,0.6l-0.6,0.6v2.6h1.3l0.6-2.6h1.3l1.9,1.9l0.6-0.6l0.6-0.6l-0.6-1.3h-1.3l0.6-0.6
	c1.3-0.6,1.3-0.6,1.9-1.9c1.5,0.8,2,1.2,3.2,0h1.3c0.4,0.8,0.1,0.6,1.3,0.6v1.3l-0.6,0.6h-1.3v1.3c3.4,0.8,5.9,0.7,7.7-2.6h1.3
	c1.4,0.9,2.2,0.8,3.8,0.6v1.3l-1.9,3.2h-1.3l-1.3-1.9H147v1.3v1.3c2.5,0.3,4.6,0.7,7,0v1.3l3.8-0.6v1.9c1.5,0.7,2.2,0.8,3.8,0.6
	v-1.3h-1.3l-0.6,0.6l-0.6-0.6c0.3-2,0.7-2.8,2.6-3.8l-0.6-0.6v-1.3h1.3l0.6,0.6l-0.6,0.6l-1.3,1.9v1.3h1.3c1.6,1.8,2.8,2.4,5.1,2.6
	v-1.3l-3.2-0.6V549c2.6-0.8,4.5-0.2,7,0v1.3c1.3,0.6,2.4,0.6,3.8,0.6v-1.3c-0.1-1.9,0.1-3.3,0.6-5.1h1.3l0.6,0.6l-0.6,0.6l-0.6,3.8
	l3.8,0.6l0.6-0.6l-1.3-2.6l-0.6,0.6l-0.6-0.6v-1.3c2.1-0.1,3.8,0.6,5.8,1.3l0.6-0.6l-0.6-0.6c-1.2-1-1.7-1.5-3.2-1.9l0.6-0.6
	l3.8-0.6v1.3h1.9v-3.2l0.6,0.6l1.3,2.6h1.3l-0.6-0.6c0.4-2.2,0.4-4,1.9-5.8l-0.6-0.6l-0.6-0.6l-0.6-0.6v-1.3h1.3
	c1.2,1.7,2.1,3.1,2.6,5.1h1.3l-0.6-0.6v-4.5h1.3c2.9-5.1-1.6-13.5-3.2-18.6l0.6-0.6h1.3c0.2,2.7,1.1,4.1,3.2,5.8l-1.3,0.6
	c0.8,3.1,1.7,6.1,3.2,9h1.3v-1.9c0.8-0.4,0.6-0.1,0.6-1.3h-1.3c-0.3-2.2-0.4-4.4-1.3-6.4l0.6-0.6l1.3,1.3l0.6-0.6v-1.3h-1.9v-1.3
	v-2.6h1.3l2.6,0.6v1.3c-0.5,3.3,0.5,6.9,0.6,10.2l0.6-0.6c1.5-6.5-0.3-13.3,1.3-19.8l1.3,0.6l0.6,0.6l-0.6,0.6v1.3h1.3v1.9l0.6-0.6
	v-7.7h-1.9l-0.6-0.6v-1.3h1.3l0.6,0.6l0.6-0.6l-0.6-0.6v-5.1l0.6,0.6l1.3,4.5h1.3l0.6-0.6v-1.3c-0.8-1.4-1.1-2.3-1.3-3.8h1.3
	l0.6-0.6l-0.6-0.6H211c-2.4,0.4-3.6,0.8-4.5,3.2h-1.3c-1-1.2-1.9-1.9-3.2-2.6V494h1.3c1.2,0.8,1.8,1.1,3.2,1.3V494
	c1-0.6,0.8-0.6,1.9-0.6v-1.9c1.2-1.5,1.7-2.6,1.9-4.5h1.3l1.3,2.6h1.3l0.6-0.6l-0.6-0.6l0.6-0.6h1.3l0.6-0.6l-0.6-0.6h-1.3
	c-2.7-0.1-4.2-1.7-5.8-3.8l-0.6,0.6h-1.9v-1.3l-3.8-0.6v-1.9c-0.3-1-0.3-1-1.3-1.3l0.6-0.6h1.3c1.9,2.2,3.6,3.5,6.4,4.5l0.6-0.6
	c-0.4-0.8-0.1-0.6-1.3-0.6v-1.9c-0.8,0.4-0.6,0.1-0.6,1.3h-1.9v-1.3c-1-5.9-6.1-1.6-9,0l0.6,0.6h2.6v1.3l-3.8,1.9v1.3h1.3l3.2-0.6
	v-1.3l3.8,1.3v1.3h-1.3l-0.6,0.6l0.6,0.6h1.3c1.3,1.2,2.1,1.6,3.8,1.9l-0.6,2.6h-1.3l-3.2-0.6v1.3l1.9,1.9l-0.6,0.6
	c-1.5-0.2-2.4-0.5-3.8-1.3l-0.6,0.6v1.3c0,1.2-0.2,0.9,0.6,1.3l-0.6,0.6c-2.4,0.1-3.6,0.3-4.5,2.6H195l-3.8-1.3l-1.3,0.6l-0.6,0.6
	v1.3h1.3v1.3h-1.3l-3.8-3.8l-0.6,0.6v1.3c0.4,0.8,0.1,0.6,1.3,0.6v1.3h-1.9l-0.6,0.6c0.3,1,0.3,1,1.3,1.3l-0.6,0.6h-3.2l2.6-3.8
	l-0.6-0.6l-0.6-0.6c-1-0.6-0.8-0.6-1.9-0.6v1.3l-3.2-0.6v1.3c-0.9,1.4-0.8,2.2-0.6,3.8h-1.3l-1.3-5.8c-2.2-0.4-3.1-1-3.8-3.2h-1.3
	c-0.6,1-0.6,0.8-0.6,1.9h-1.3l-2.6-2.6H163v1.3l1.3,3.2l0.6-0.6l3.8-0.6l0.6,0.6l-0.6,0.6c-4.1,1.2-4.6,2.9-5.1,7h-1.3v-1.3
	c0.1-3.1,1.3-6.5-1.9-8.3v-1.3c0.9-1.7,1.3-3.3,0.6-5.1l0.6-0.6h1.3c1.3,1.5,3.1,1.3,5.1,1.3v1.9c2.1,1.8,3.3,1.5,5.8,0.6v1.3
	l1.3,1.9l2.6-0.6V494l-6.4-5.8l0.6-0.6l2.6,2.6h1.3v-1.3h1.3v1.3l-0.6,0.6l0.6,0.6l0.6-0.6c0.6-1,0.6-0.8,0.6-1.9h1.3v1.9
	c0.6,1,0.6,0.8,0.6,1.9h3.2v1.3c-2,0.3-3.4,0.8-5.1,1.9l0.6,0.6l0.6-0.6c1.3,0.3,1.6,0.4,2.6,1.3h1.3l3.2-1.9l-0.6-0.6l-0.6-0.6
	l-1.3,0.6v-1.3l0.6-0.6h1.3l1.9,0.6v1.3l-0.6,3.2h1.3c1.3-2.2,1.8-3.4,0.6-5.8h-1.3l-1.3,0.6v-1.3c-0.8-1-1-1.3-1.3-2.6l3.8-0.6
	l0.6,0.6c-0.1,1.6,0,2.4,0.6,3.8h1.3c1.2-0.8,1.7-0.8,3.2-0.6v-1.3l-1.9-0.6l0.6-1.3l2.6-1.9l0.6,0.6l-0.6,0.6v1.3h1.3h1.9v-1.3
	h-1.3v-1.3c0.8-0.4,0.6-0.1,0.6-1.3l-0.6-0.6l-3.8,1.3l-0.6-0.6v-1.3h-1.3v1.3c0.3,1,0.3,1,1.3,1.3l-0.6,0.6l-0.6,0.6l-4.5-1.3v-1.3
	h1.3l1.9,0.6V485c0.3-3.7,2.7-6.7-2.6-7v1.3c-1.5,0.7-2.3,1.2-3.2,2.6h-1.3c-1.7-0.7-3.3-1.1-5.1-1.3v-3.2h-1.3v1.3
	c1.1,2.3,2.8,3.3,4.5,5.1h1.3l0.6-0.6v1.3l-2.6,1.3v-1.3l-0.6-0.6l-0.6,0.6l-0.6,2.6l-0.6-0.6l-0.6-0.6l0.6-2.6h-1.3
	c-1.4-1.6-2.4-2.2-4.5-2.6v1.3h1.9l-0.6,0.6l-4.5,1.3v-1.3h2.6l-0.6-4.5h-1.3c-2.4,0.8-4.5,0.7-7,0.6v-1.3l0.6-0.6H163l-0.6-0.6
	l0.6-1.3c3.6-2.2,7-4.6,9.3-8.3c1.3-2.2,2.4-7,4.5-8.4c3.1-2,10.3,4.8,10.6,7.8h1.3l0.6-1.9h1.3c1.2,1.5,2,2,3.8,2.6v1.3
	c-1,0.3-1,0.3-1.3,1.3l0.6,0.6c3.5-1.4,6.7,1.1,7.7,4.5l0.6-0.6c7.4,1.6,10.4,9.7,17.3,11.5l-0.6,0.6v1.3l0.6,0.6
	c1.5,0.6,2.6,1.5,3.8,2.6l0.6-0.6c-10.8-17.9-35.5-27.5-52.5-38.4l-0.6,0.6c1.9,4.7-1.3,10.3-4.2,14.1c-6.7,8.6-23.6,19.9-34.2,22.5
	c-3.1,0.8-6.5-1.2-9.6-1.4v-1.3c9.1,1.2,12.9-0.3,21.1-3.8v-1.3h-1.3c-15.1,1.2-30.7-3.4-42.2-13.8c-4.5-4.1-9.3-9.3-9.7-15.6h-1.3
	c-2.4,1-7.6,2.9-8.1,5.8c-0.5,3.1,2.6,6,4.4,8.1C90.7,470.7,101.2,480.2,108.6,482.4z"/>
<path class="st83" d="M132.3,458.1v1.9l-1.3,0.6v1.3l1.3,0.6c3.3-0.8,5.7-2.4,7.7-5.1l-0.6-0.6L132.3,458.1z"/>
<path class="st84" d="M159.1,456.8l-0.6,1.3v1.9l1.3-0.6l0.6-2.6H159.1z"/>
<polyline points="-8.5,458.8 -7.9,459.4 -8.5,458.8 "/>
<polyline points="260.3,458.8 260.9,459.4 260.3,458.8 "/>
<path d="M-9.8,463.9l0.6,0.6L-9.8,463.9z"/>
<path class="st85" d="M113.1,465.2v1.3l5.1,4.5l0.6-0.6v-3.2h-1.9l-1.3-2.6h-1.3L113.1,465.2z"/>
<path class="st86" d="M123.3,465.2v1.3c2.2,1.2,3.6,1.3,4.5-1.3h-1.3H123.3z"/>
<path class="st87" d="M143.8,469.6h1.3l1.9-2.6l-0.6-0.6C144.8,467.3,144.3,468,143.8,469.6z"/>
<path class="st88" d="M143.1,472.8v1.3h1.3c3.3,2.3,7.1-0.1,10.2-1.9l-0.6-0.6C150.4,471.6,146.7,471.8,143.1,472.8z"/>
<path class="st89" d="M131.6,476l0.6,0.6h9l-0.6-0.6H131.6z"/>
<path class="st11" d="M-180,790.7v3.3h4.2C-177.4,793-178.8,792-180,790.7z"/>
<path class="st90" d="M51.6,510.6l-0.6,1.3c0.5,4.1,1.3,8,1.3,12.2H51c-1-1.6-1.8-2.7-3.2-3.8l-0.6,0.6c1.5,2.5,3.2,5,5.8,6.4v1.3
	h-1.3c-2-2.7-4.4-5.6-7-7.7l-0.6,0.6v1.3c3.7,2.2,10.9,9.9,12.2,14.1h-1.3c-3.4-3.3-8.2-7.7-12.8-9l0.6,1.3
	c4.3,5.7,12.9,9.2,14.1,16.6h-1.3c-2-0.3-3.4-1-5.1-1.9l-0.6,0.6c2.2,2.9,5.4,4.9,9,5.8v1.3v2.6h-1.3c-6.8-4.8-13.2-11.6-20.5-15.4
	l-0.6,0.6c3.3,7,15.2,15.4,21.8,19.2v1.3h-1.3c-1.9-0.8-3.1-1.6-4.5-3.2H51l-0.6,0.6v3.8h1.3c1.7,2.8,3.2,3.6,6.4,3.8v1.3l-0.6,1.9
	h-1.3c-1.5,0.2-2.5,0.6-3.8,1.3v1.3h1.3h3.8l-0.6,0.6c-1.6,0.6-2.1,0.9-2.6,2.6c-3.6,0.3-5.5,0.1-9-1.3v1.3l-9.6-2.6L35,572l0.6,0.6
	l-0.6,0.6l-0.6-0.6c-1.9-1.9-3.8-1.9-6.4-1.9v-1.3c0.8-0.4,0.6-0.1,0.6-1.3l-0.6-0.6h-3.8v-1.9v-2.6l-1.3,0.6
	c-0.6,1.9-0.6,3.7-0.6,5.8h-1.3l-1.9-3.8h-1.3v1.3c5.3,12.6,21.1,23.1,32.6,29.5c33.6,18.7,70,24.8,108.1,17.7
	c5.2-1,12.5-2.6,17.3-4.7c5.8-2.7,12.2-7.2,18.7-7.9v-1.3c-2.2-7.7-0.7-12.7-0.6-20.5h1.3l1.9,19.2h1.3c8.1-6.8,17.4-11.6,25-19.2
	c2.9-2.9,6.5-5.6,7.7-9.6h-1.3c-3.1,2.7-5.6,6.5-9.6,7.7v1.9c-4.3,3.6-6.9,6.3-12.8,5.8v1.3c-1,0.6-0.8,0.6-1.9,0.6v-1.3
	c3.4-4.3,7-9.6,11.5-12.8V572l-0.6-0.6h-1.3c-3.6,2.7-10.8,8.7-12.2,12.8c-5.7-4.9,1.2-8.6,5.8-10.9V572l-0.6-0.6
	c-4,0.2-7.8,3.5-9.6,7h-1.3v-1.3c2.2-2.9,4.7-7.8,7.7-9.6v-1.3c-5.7-8.8,5.2-10.1,6.4-17.3h1.9l0.6-0.6v-1.3l3.8-2.6v-1.3v-1.9h-1.3
	c-2.4,1.5-3.8,3-4.5,5.8h-1.9l-8.3,9l-0.6-0.6l1.3-6.4h1.3h2.6v-1.3c-1.1-1-1.9-1.4-3.2-1.9c2.4-3.1,5.3-5.5,9-7v-1.9
	c1.6-1.4,2.2-2.4,2.6-4.5h-1.3c-2.9,3.2-6.1,6.7-10.2,8.3v-1.3c3.3-4.1,7.1-7.5,9.6-12.2l-0.6-0.6c-2.2,1.9-4.3,4.3-5.1,7h-1.3
	l-0.6-1.3h-1.3v1.9c-2,3.2-3.1,6.5-3.8,10.2h-1.3v-1.3c0.6-7.8,0.8-14.3-1.9-21.8h1.3l-0.6-1.3c-1.4-1.7-2.2-2.9-2.6-5.1h-1.3
	l-0.6,0.6l0.6,0.6c0.1,4.7,6.6,14.6,1.3,17.9v1.3l0.6,3.2l-0.6,0.6l-0.6-0.6c-0.6-2.4-1.5-3.8-3.8-4.5v1.3l1.9,1.3l-1.3,0.6
	c-0.4,2-0.7,3.8,0,5.8l-0.6,0.6l-0.6-0.6l-1.3-2.6l-0.6,0.6v2.6H186l-0.6-1.3l-4.5,0.6l0.6,0.6l3.2,1.9v1.3h-1.3
	c-2.1-1.5-4.2-2.2-5.1,0.6l0.6-0.6l1.9,2.6l-0.6,0.6l-0.6-0.6h-3.2v-1.3l1.3-3.8h-1.3c-1.7,2-1.6,3.8-1.3,6.4h-1.3h-2.6v-1.3
	c-2.5-1.3-4.4-1.9-7-0.6v1.3h1.9l1.3,0.6v1.3h-1.3l-5.1-2.6v-1.3c1.1-0.8,1.4-1.3,1.9-2.6l-0.6-0.6h-1.3v1.3l0.6,0.6h-1.9
	c-0.5,1.7-0.5,2.8,0,4.5l0.6-0.6h1.3v1.3c-2.1-0.2-2.9-0.6-3.8-2.6h-1.3l-2.6,0.6V549c-2.4,0.5-4.6,0.2-7,0v-1.3v-1.3h1.3
	c0.8,1.2,1.2,1.4,2.6,1.9v-1.3c1.4-1,1.7-1.5,1.9-3.2h-1.3l-3.8-0.6v1.3c-2.9,1.3-4.5,1.9-7.7,1.3v-1.3h1.3l0.6-1.9l-1.3-0.6h-1.3
	v1.3l-2.6-1.3l-0.6,0.6l-2.6,1.3l0.6,0.6l1.3,0.6l-0.6,1.3l-0.6,0.6l-0.6-0.6c-1-0.8-1.3-1-2.6-1.3v1.9l-0.6,0.6h-1.3l0.6-3.2
	l-0.6-0.6c-1.4,0.6-2.3,0.6-3.8,0.6v-1.3l7.7-1.9V540c-2.6,0.1-5,0.3-7,1.9l-0.6-0.6l0.6-0.6l-0.6-3.8h4.5v-1.3h5.8l-0.6-0.6
	c-3.6-1.9-5.8-1.5-8.3-5.1h-1.3c-0.9,0.7-0.8,0.6-1.9,0.6l-0.6,0.6v1.3l-1.3,0.6v1.3h1.3c0.8-0.4,0.6-0.1,0.6-1.3h1.3v1.3l-1.3,4.5
	H122c-0.8-1.2-1.2-1.4-2.6-1.9v1.3l-0.6,0.6l-0.6-0.6l-1.3-2.6l0.6-0.6l2.6-0.6l-0.6-0.6h-2.6v-1.3c-0.9-1.5-1.5-2.8-1.9-4.5h-1.3
	l-0.6,0.6v1.3l1.3,0.6l-0.6,0.6h-1.3l-0.6,0.6l0.6,0.6l1.9-0.6l0.6,0.6v1.3c-2.9,0.4-4.9,0.4-7.7-0.6l-0.6,0.6l0.6,0.6v1.3H106
	l-1.9-1.3l-0.6,0.6l-1.3,0.6v1.3l1.3,1.3l-0.6,0.6l-0.6-0.6l-2.6-0.6v-1.3c2.2-1.3,3-2.6,2.6-5.1h-1.3v1.9l-0.6,0.6l-0.6-0.6
	l-0.6-3.2l-0.6,0.6l-1.3,2.6h1.3v3.8h-1.3c-2.8-1.3-4.7-1.5-7.7-1.3v1.9l-0.6,0.6h-1.3c-0.1-3.6-0.8-4.9-4.5-5.8l-0.6,0.6v2.6h1.3
	l0.6-1.9h1.3l0.6,7.7h-1.3l-4.5,1.3v-1.3V540h1.3l1.3,0.6l0.6-0.6c-1-1.4-1.5-1.7-3.2-1.9l1.3-0.6v-1.9h-1.3l-0.6-0.6l1.9-4.5
	l-0.6-0.6l-0.6,0.6l-0.6-1.3h-2.6v-1.3l2.6-2.6l-0.6-0.6h-1.3c-1.2,1.1-1.7,1.5-3.2,1.9v-1.3c1-0.6,0.8-0.6,1.9-0.6v-1.3h-1.9
	l-0.6-0.6l0.6-0.6h1.9v-1.3c-1.3-2.1-3.3-2.9-5.8-3.2c-0.6,4.3-5.1,6-5.8,10.2h-1.9c-2.4,3.3-4.5,7.4-3.8,11.5H58
	c-2-8.6-0.3-18.3,1.3-26.9H58c-2,2.8-2.5,6.3-2.6,9.6l-0.6-0.6c-1.3-3.7-1.9-7-1.9-10.9L51.6,510.6L51.6,510.6z"/>
<path d="M260.3,522.8l0.6,0.6L260.3,522.8z"/>
<g>
	<path d="M213,711h2l0,0c0.4-0.3,0.7-0.7,1.1-1H215l-3-2l-1,1l1,3L213,711z"/>
	<path d="M-138.5,716.9c0.1,0.1,0.2,0.2,0.2,0.3c0.1,0.1,0.2,0.1,0.2,0.2c0.6,0.4,1.1,0.8,1.5,1.4c0.6,0.3,1.1,0.7,1.5,1.1
		c0.4,0.4,0.7,0.8,1,1.3c0.3,0.3,0.6,0.6,0.8,1c0.2,0.2,0.4,0.4,0.6,0.5c0.9,0.6,1.6,1.3,2.2,2.2c0.2,0.2,0.4,0.4,0.6,0.7
		c0.2,0.2,0.4,0.3,0.6,0.5c-2.9-3.2-5.6-6.5-7.9-10.1l-1,1l-0.8-0.5l0.1,0.1C-138.7,716.7-138.6,716.8-138.5,716.9z"/>
</g>
<path class="st91" d="M246.4,555.2l0.2,0.4L246.4,555.2z"/>
<path d="M244.9,556.7l0.6,0.6L244.9,556.7z"/>
<path class="st92" d="M242.3,560.5l0.6,0.6L242.3,560.5z"/>
<path class="st15" d="M143,765v-2l2,2v1.3l0.1-0.1c0.3-0.2,0.6-0.3,0.9-0.5l-3-31.8h-2v2c-0.9,11.4-3.5,18.7,1,30L143,765z"/>
<path class="st93" d="M-71,740v2v3h2v-5H-71z"/>
</svg>
