<?xml version="1.0" standalone="no"?>
<!DOCTYPE svg PUBLIC "-//W3C//DTD SVG 20010904//EN"
 "http://www.w3.org/TR/2001/REC-SVG-20010904/DTD/svg10.dtd">
<svg version="1.0" xmlns="http://www.w3.org/2000/svg"
 width="3806.000000pt" height="3806.000000pt" viewBox="0 0 3806.000000 3806.000000"
 preserveAspectRatio="xMidYMid meet">
<metadata>
Created by potrace 1.11, written by Peter Selinger 2001-2013
</metadata>
<g transform="translate(0.000000,3806.000000) scale(0.100000,-0.100000)"
fill="#000000" stroke="none">
<path d="M609 38056 c-2 -2 -20 -7 -40 -10 -57 -9 -163 -50 -226 -87 -54 -33
-178 -147 -216 -199 -35 -49 -87 -166 -106 -240 -20 -74 -20 -287 -18 -18510
l2 -18435 27 -80 c37 -107 90 -194 168 -274 106 -110 223 -175 366 -204 59
-12 2693 -14 18463 -14 10117 0 18415 4 18440 9 270 49 480 237 564 506 l21
67 1 18420 c2 15804 0 18430 -12 18489 -17 83 -53 171 -98 242 -34 52 -143
168 -180 191 -105 65 -155 88 -266 121 -25 7 -36882 15 -36890 8z m36844 -434
c70 -31 108 -64 147 -128 l35 -58 0 -18401 0 -18400 -22 -45 c-29 -59 -83
-113 -141 -142 l-47 -23 -18400 0 -18400 0 -42 23 c-80 42 -140 120 -158 202
-9 40 -9 36721 -1 36761 12 53 36 97 80 142 46 48 95 74 159 85 21 4 8297 6
18391 6 l18352 -1 47 -21z"/>
<path d="M21148 33115 c-2 -2 -23 -6 -48 -10 -216 -30 -450 -224 -554 -459
-13 -30 -56 -166 -96 -303 -132 -457 -161 -558 -165 -573 -8 -27 -166 -573
-197 -675 -16 -55 -31 -107 -33 -115 -2 -8 -31 -109 -65 -225 -34 -115 -65
-223 -70 -240 -12 -46 -36 -128 -75 -265 -20 -69 -52 -177 -70 -240 -18 -63
-54 -187 -80 -275 -26 -88 -55 -189 -65 -225 -10 -36 -52 -184 -95 -330 -42
-146 -79 -272 -81 -280 -2 -8 -47 -163 -100 -345 -52 -181 -97 -337 -100 -345
-2 -8 -13 -46 -24 -85 -12 -38 -23 -77 -25 -85 -2 -8 -15 -55 -30 -105 -44
-149 -196 -675 -217 -750 -11 -38 -26 -90 -33 -115 -23 -78 -62 -214 -68 -235
-3 -11 -17 -58 -30 -105 -86 -294 -240 -827 -283 -975 -19 -66 -41 -142 -49
-170 -12 -39 -38 -130 -50 -175 -1 -3 -4 -12 -8 -20 -5 -14 -205 -707 -212
-740 -3 -8 -23 -78 -46 -155 -22 -77 -45 -153 -49 -170 -4 -16 -42 -149 -85
-295 -42 -146 -112 -386 -155 -535 -116 -401 -223 -770 -275 -950 -26 -88 -49
-167 -51 -175 -2 -8 -37 -132 -79 -275 -42 -143 -82 -282 -89 -310 -8 -27 -28
-97 -45 -155 -18 -58 -34 -112 -36 -120 -2 -8 -24 -85 -49 -170 -119 -411
-326 -1127 -462 -1600 -58 -201 -109 -378 -114 -395 -25 -80 -86 -289 -165
-565 -48 -168 -93 -324 -101 -347 -7 -23 -16 -52 -18 -65 -3 -13 -28 -102 -56
-198 -29 -96 -65 -220 -80 -275 -16 -55 -40 -139 -54 -187 -13 -48 -27 -91
-30 -96 -3 -5 -7 -19 -10 -33 -2 -13 -61 -220 -131 -459 -69 -239 -164 -568
-211 -730 -47 -162 -110 -380 -141 -485 -31 -104 -58 -199 -61 -210 -2 -11
-34 -119 -69 -240 -36 -121 -71 -242 -78 -270 -7 -27 -40 -142 -73 -255 -33
-113 -62 -214 -65 -225 -3 -11 -17 -58 -30 -105 -40 -134 -74 -253 -80 -275
-3 -11 -73 -254 -157 -540 -83 -286 -153 -527 -155 -535 -1 -8 -24 -86 -50
-174 -26 -87 -48 -166 -50 -175 -2 -9 -18 -63 -35 -121 -17 -58 -69 -235 -115
-395 -46 -159 -115 -398 -153 -530 -38 -132 -118 -406 -177 -610 -101 -351
-154 -534 -260 -900 -26 -88 -71 -245 -101 -348 -29 -104 -56 -192 -58 -196
-3 -4 -7 -18 -10 -32 -2 -13 -25 -96 -51 -184 -26 -88 -51 -173 -55 -190 -4
-16 -17 -61 -28 -100 -12 -38 -33 -110 -48 -160 -14 -49 -68 -238 -121 -420
-152 -528 -203 -705 -228 -790 -53 -183 -198 -686 -222 -765 -14 -47 -33 -114
-43 -150 -10 -36 -37 -128 -60 -205 -22 -77 -43 -147 -45 -155 -1 -9 -35 -126
-74 -260 -39 -135 -78 -267 -86 -295 -8 -27 -31 -104 -51 -170 -52 -169 -63
-228 -59 -315 11 -223 181 -435 450 -561 46 -22 88 -39 95 -39 7 0 60 -14 119
-30 147 -42 151 -43 386 -108 116 -33 309 -87 430 -120 121 -34 351 -98 510
-142 160 -44 304 -84 320 -89 31 -10 362 -102 380 -105 6 -1 26 -7 45 -13 19
-6 61 -18 93 -27 31 -9 81 -23 110 -31 153 -43 241 -67 256 -70 9 -2 16 -4 16
-5 0 -1 7 -3 15 -5 20 -4 248 -68 540 -151 129 -36 267 -75 305 -86 91 -26
233 -21 317 11 112 43 252 159 328 271 90 133 98 157 264 740 42 146 80 279
85 295 6 17 40 134 76 260 37 127 114 392 171 590 57 198 106 367 109 375 2 8
25 87 50 175 56 190 78 269 100 350 9 33 24 87 35 120 11 33 37 123 59 200 22
77 92 318 154 535 63 217 117 404 120 415 3 11 17 58 31 105 13 47 48 164 76
260 28 96 53 182 55 190 1 8 56 195 120 415 64 220 118 407 120 415 2 8 29
102 60 209 31 107 58 202 60 210 2 9 13 48 24 86 36 118 49 163 105 355 29
102 63 219 75 260 12 41 24 82 26 90 3 15 66 232 160 555 57 195 170 585 264
915 39 135 75 259 80 275 9 29 115 393 207 715 24 85 53 184 64 220 11 36 51
175 90 310 97 341 120 420 133 460 6 19 12 40 13 45 1 6 23 80 47 165 25 85
84 290 132 455 81 281 115 398 180 620 15 50 28 97 30 105 2 8 24 85 49 170
52 180 186 640 190 655 11 43 31 110 47 160 11 33 21 70 23 81 4 19 46 166 66
229 13 42 141 488 144 500 1 6 10 35 19 65 9 30 32 109 51 175 19 66 55 190
80 275 24 85 84 290 131 455 85 296 119 413 230 795 31 107 59 202 60 210 2 8
26 92 54 185 90 309 152 520 156 535 2 8 23 85 48 170 25 85 75 259 111 385
36 127 73 250 81 275 8 25 21 70 29 100 8 30 26 93 40 140 13 47 36 126 50
175 14 50 30 104 35 120 6 17 23 77 40 135 27 97 98 342 273 945 77 265 109
377 137 475 10 36 58 200 106 365 47 165 102 354 121 420 19 66 41 143 49 170
8 28 15 52 14 55 0 3 5 19 11 35 7 17 13 37 15 45 2 8 24 87 50 175 59 205
136 470 220 760 37 127 82 284 101 350 20 66 78 269 131 450 52 182 138 476
190 655 52 179 95 330 97 335 22 82 164 573 181 630 9 28 54 183 101 345 46
162 94 324 104 360 11 36 22 74 24 85 3 11 23 81 44 155 22 74 79 268 125 430
47 162 106 365 131 450 24 85 79 274 121 420 42 146 80 279 86 295 10 32 103
355 150 520 49 176 129 448 153 525 48 150 56 234 30 339 -45 182 -202 358
-408 459 -61 30 -485 166 -581 186 -5 1 -44 12 -85 25 -222 67 -276 83 -290
86 -14 3 -555 163 -745 220 -44 13 -143 43 -220 65 -77 23 -153 45 -170 51
-33 10 -453 134 -525 154 -25 7 -124 36 -220 65 -96 28 -179 53 -185 54 -22 5
-263 77 -363 108 -34 11 -68 21 -75 22 -6 1 -37 10 -68 19 -49 15 -241 31
-251 22z"/>
<path d="M9615 26889 c-161 -34 -290 -100 -402 -205 -28 -27 -102 -96 -164
-154 -62 -58 -135 -127 -163 -153 -28 -27 -99 -93 -157 -147 -58 -55 -126
-119 -151 -142 -25 -24 -100 -94 -168 -157 -67 -63 -141 -133 -165 -155 -98
-93 -292 -275 -316 -297 -23 -21 -154 -144 -318 -297 -25 -24 -97 -92 -160
-150 -63 -59 -142 -134 -177 -167 -34 -33 -84 -80 -111 -104 -26 -25 -106 -99
-178 -167 -71 -67 -146 -137 -166 -156 -35 -32 -239 -223 -324 -303 -87 -82
-289 -271 -324 -304 -20 -18 -90 -84 -156 -146 -66 -63 -136 -128 -156 -147
-96 -89 -286 -267 -319 -298 -37 -35 -257 -242 -334 -313 -22 -21 -93 -87
-156 -147 -63 -60 -133 -125 -155 -146 -22 -20 -94 -87 -160 -149 -66 -62
-133 -126 -150 -141 -16 -15 -91 -84 -165 -154 -74 -71 -151 -142 -170 -160
-60 -56 -271 -253 -315 -295 -60 -57 -274 -258 -310 -291 -16 -15 -91 -84
-165 -155 -74 -70 -144 -136 -156 -146 -12 -10 -84 -77 -161 -150 -76 -73
-148 -140 -160 -150 -12 -11 -84 -78 -160 -150 -76 -72 -154 -145 -173 -163
-19 -18 -89 -83 -155 -145 -66 -63 -138 -130 -160 -150 -22 -21 -93 -88 -158
-149 -65 -61 -131 -122 -146 -136 -15 -14 -94 -88 -177 -166 -82 -78 -161
-152 -175 -165 -42 -38 -258 -240 -304 -284 -70 -67 -287 -270 -294 -275 -22
-17 -104 -125 -134 -177 -57 -98 -79 -181 -83 -308 -4 -125 13 -211 63 -317
55 -116 101 -167 402 -447 20 -18 97 -91 171 -161 74 -70 148 -139 164 -154
17 -15 86 -80 154 -144 160 -150 181 -170 337 -316 71 -66 171 -159 220 -206
134 -126 351 -330 394 -370 21 -19 100 -93 177 -165 76 -71 150 -141 165 -155
15 -14 83 -78 151 -142 68 -63 139 -130 158 -148 19 -18 92 -87 163 -153 70
-66 137 -129 150 -139 12 -11 56 -52 97 -91 83 -78 157 -148 385 -362 82 -77
179 -168 215 -202 36 -34 85 -80 110 -103 81 -76 303 -283 390 -365 47 -44
110 -103 140 -132 76 -70 135 -126 275 -258 66 -62 136 -127 155 -145 19 -18
89 -83 155 -145 66 -62 140 -132 165 -155 25 -23 74 -69 110 -103 36 -33 128
-120 205 -192 77 -73 152 -143 166 -156 15 -13 80 -74 145 -136 66 -61 133
-124 150 -140 80 -75 336 -315 399 -374 38 -37 86 -82 106 -100 31 -29 183
-171 310 -290 20 -19 91 -86 159 -149 68 -63 144 -134 169 -158 117 -111 463
-435 492 -462 15 -14 80 -74 144 -135 65 -60 136 -127 159 -148 22 -22 73 -69
111 -105 39 -36 104 -98 145 -137 42 -38 111 -104 155 -145 368 -345 352 -331
447 -381 168 -86 387 -115 548 -72 83 21 190 85 243 143 171 187 220 240 254
276 21 22 88 94 148 158 61 65 128 137 150 161 22 23 92 98 155 166 174 187
237 254 326 348 45 47 93 100 108 116 35 38 232 249 271 290 17 17 57 60 90
96 66 71 290 310 401 429 38 41 108 116 154 165 47 50 110 117 141 150 31 33
69 74 85 92 16 17 77 82 135 145 178 190 204 225 245 333 36 97 44 180 30 290
-19 148 -61 261 -134 361 -16 22 -90 94 -163 160 -74 65 -136 121 -139 124 -3
3 -36 32 -75 65 -38 33 -72 62 -75 65 -4 5 -369 325 -444 390 -16 14 -52 46
-80 71 -28 25 -69 61 -91 80 -22 19 -44 39 -50 45 -5 6 -59 53 -120 105 -60
52 -112 97 -115 100 -3 3 -99 88 -215 190 -115 101 -226 198 -245 215 -19 18
-46 42 -60 54 -37 31 -360 314 -460 404 -20 17 -67 58 -105 91 -39 33 -80 69
-91 80 -12 11 -35 31 -50 45 -37 33 -358 314 -430 377 -115 100 -149 130 -163
144 -9 8 -72 64 -141 125 -69 60 -138 121 -155 135 -16 15 -88 78 -160 141
-71 63 -143 125 -159 139 -16 13 -34 29 -40 35 -6 6 -72 64 -146 129 -129 113
-261 229 -284 250 -6 6 -47 41 -91 80 -44 38 -85 74 -91 80 -6 5 -37 33 -69
60 -32 28 -63 55 -69 61 -6 5 -69 61 -141 124 -262 229 -451 396 -480 423
l-30 27 46 43 c39 36 117 105 224 198 16 14 55 48 85 75 31 27 87 76 124 109
38 33 81 71 96 85 15 14 38 34 51 45 36 31 193 168 205 180 6 5 39 35 74 65
35 30 74 64 86 75 12 11 37 33 55 49 44 38 174 152 219 192 19 17 80 71 135
119 55 48 114 100 131 115 17 16 125 110 240 211 115 100 229 201 254 223 25
23 61 55 80 71 19 17 69 59 110 95 41 36 79 70 85 76 5 6 82 73 170 150 88 76
162 141 165 144 3 3 77 68 165 145 88 77 162 142 165 145 3 3 38 35 79 70 41
36 82 72 91 80 9 8 47 42 85 75 114 99 240 209 245 215 3 3 61 54 130 114 69
60 132 117 142 128 9 10 19 18 22 18 3 0 14 8 24 18 25 23 79 71 187 166 74
65 189 166 239 211 6 6 45 39 86 74 41 36 80 70 85 75 9 10 100 89 189 166 16
14 36 32 45 40 9 9 50 45 91 80 41 36 77 67 80 70 3 3 59 53 125 110 192 168
197 172 265 240 67 68 126 168 156 265 31 101 46 260 30 335 -26 125 -86 240
-172 330 -23 25 -55 59 -70 75 -23 25 -221 237 -304 325 -14 15 -52 56 -84 91
-51 55 -219 234 -336 359 -19 20 -87 93 -150 161 -63 67 -128 137 -145 155
-16 17 -77 82 -135 144 -58 62 -122 131 -143 154 -22 22 -64 68 -95 101 -32
34 -118 126 -192 205 -74 80 -166 178 -205 219 -38 41 -79 84 -90 96 -11 12
-69 75 -130 140 -60 65 -126 135 -146 156 -19 21 -82 89 -140 151 -57 61 -126
136 -153 165 -133 144 -344 200 -571 152z"/>
<path d="M28245 26898 c-72 -13 -144 -38 -187 -65 -21 -12 -40 -23 -44 -23 -3
0 -31 -20 -62 -44 -56 -43 -101 -88 -337 -341 -66 -71 -127 -136 -135 -145 -9
-8 -76 -81 -150 -160 -74 -79 -141 -152 -150 -160 -8 -9 -67 -71 -130 -139
-63 -68 -133 -142 -155 -166 -22 -23 -94 -100 -160 -171 -66 -71 -150 -160
-186 -199 -36 -38 -79 -84 -95 -101 -28 -31 -196 -211 -265 -285 -19 -20 -86
-91 -149 -159 -63 -67 -132 -141 -153 -164 -22 -22 -89 -95 -151 -161 -62 -66
-124 -132 -137 -146 -13 -15 -73 -79 -134 -143 -139 -149 -197 -233 -230 -338
-59 -187 -13 -447 109 -615 24 -33 77 -89 117 -124 41 -35 89 -78 108 -94 19
-17 42 -37 50 -45 9 -8 45 -40 81 -70 35 -30 74 -64 85 -75 12 -11 50 -45 86
-75 57 -49 156 -137 169 -150 3 -3 39 -34 80 -70 41 -36 77 -67 80 -70 3 -3
39 -34 80 -70 41 -36 93 -81 115 -101 43 -39 221 -195 270 -237 35 -30 188
-165 195 -172 4 -4 108 -95 195 -171 101 -88 235 -206 265 -233 19 -18 91 -81
160 -141 69 -60 127 -112 130 -115 6 -7 76 -68 165 -145 38 -33 92 -80 120
-105 28 -25 82 -73 121 -106 38 -34 112 -99 164 -144 52 -46 113 -99 135 -119
22 -20 92 -81 155 -136 63 -55 122 -107 130 -115 17 -15 35 -31 285 -250 138
-121 268 -235 289 -255 6 -5 65 -57 131 -115 66 -57 122 -107 125 -110 3 -3
59 -52 125 -110 66 -58 134 -117 150 -131 63 -56 330 -290 560 -492 132 -116
251 -221 265 -234 14 -13 28 -23 32 -23 23 0 1 -34 -49 -76 -31 -27 -61 -54
-67 -59 -6 -6 -65 -58 -131 -115 -66 -58 -125 -110 -131 -115 -6 -6 -39 -35
-74 -65 -35 -30 -73 -64 -84 -75 -12 -11 -55 -49 -96 -85 -143 -125 -420 -368
-484 -425 -12 -11 -51 -45 -86 -75 -35 -30 -68 -60 -74 -65 -6 -6 -44 -39 -85
-75 -41 -36 -82 -72 -91 -80 -17 -16 -35 -31 -170 -150 -47 -41 -98 -86 -115
-101 -16 -14 -93 -82 -170 -149 -77 -67 -171 -150 -209 -184 -135 -118 -181
-159 -211 -185 -239 -210 -371 -326 -375 -330 -3 -3 -36 -33 -75 -66 -38 -33
-75 -64 -81 -70 -6 -5 -42 -37 -79 -70 -38 -33 -73 -65 -79 -70 -6 -6 -119
-105 -251 -220 -132 -115 -242 -212 -245 -215 -5 -6 -147 -130 -204 -179 -17
-14 -40 -35 -51 -46 -12 -11 -39 -35 -61 -54 -21 -18 -70 -61 -108 -95 -39
-33 -95 -83 -125 -110 -31 -27 -70 -62 -88 -77 -18 -16 -90 -79 -160 -140 -70
-62 -130 -115 -133 -118 -3 -3 -34 -31 -70 -61 -36 -30 -76 -66 -90 -80 -14
-14 -39 -35 -55 -48 -17 -13 -46 -38 -65 -56 -19 -17 -78 -69 -130 -115 -219
-191 -248 -218 -311 -281 -48 -47 -77 -89 -108 -150 -56 -116 -71 -174 -78
-316 -5 -107 -3 -131 16 -193 28 -91 82 -189 136 -247 5 -6 66 -71 135 -145
69 -73 136 -145 150 -160 14 -15 71 -76 126 -136 56 -59 117 -124 135 -143 18
-19 62 -67 98 -105 75 -80 279 -299 338 -361 21 -23 88 -95 150 -160 61 -66
123 -132 138 -149 15 -16 57 -62 94 -101 162 -173 360 -384 490 -523 18 -20
79 -85 135 -145 55 -59 116 -125 135 -145 18 -20 87 -92 151 -161 65 -69 140
-150 166 -180 148 -167 226 -223 357 -257 139 -35 347 -11 501 61 114 52 121
58 331 255 121 114 215 202 374 351 74 69 154 145 180 169 25 24 102 96 170
160 69 64 139 130 157 146 57 54 307 289 384 361 99 92 240 225 260 244 14 13
155 145 315 295 77 72 260 244 301 282 22 21 101 94 174 163 73 69 170 159
214 201 45 42 93 87 107 100 15 13 84 78 154 144 70 66 144 135 164 154 20 18
92 87 161 151 133 125 180 169 275 258 33 30 123 114 199 186 77 72 151 142
166 156 15 14 58 54 96 90 38 36 136 128 219 205 82 77 180 169 218 205 38 36
75 70 81 75 6 6 92 86 191 179 173 163 425 399 470 441 12 11 55 52 96 90 41
39 111 104 155 145 44 41 149 140 234 220 134 125 185 173 304 285 71 66 331
310 389 365 38 36 75 70 81 75 15 14 340 318 447 419 143 135 372 350 389 366
9 8 50 47 91 85 69 65 318 299 379 355 31 28 101 95 314 295 82 77 168 168
192 202 196 273 176 615 -51 872 -40 45 -41 46 -336 321 -20 19 -90 85 -156
146 -65 61 -134 126 -153 144 -19 18 -91 85 -160 150 -69 65 -141 132 -160
150 -19 18 -88 83 -153 144 -66 61 -136 127 -156 146 -21 19 -98 91 -171 160
-73 69 -150 141 -171 160 -20 19 -90 85 -156 146 -65 61 -134 126 -153 144
-19 18 -91 86 -160 150 -69 65 -141 132 -160 150 -19 18 -91 85 -160 150 -69
65 -141 132 -160 150 -19 18 -93 87 -164 154 -71 66 -146 137 -167 156 -20 19
-90 85 -156 146 -65 61 -134 126 -153 144 -19 18 -91 85 -160 150 -69 65 -141
132 -160 150 -19 18 -87 81 -150 140 -63 60 -140 132 -170 160 -30 28 -109
102 -174 163 -66 62 -136 128 -157 147 -20 19 -90 85 -156 146 -65 61 -134
126 -153 144 -19 18 -91 85 -160 150 -69 65 -141 132 -160 150 -19 18 -88 83
-154 144 -161 151 -195 183 -337 316 -68 63 -161 152 -208 196 -47 45 -99 94
-116 109 -16 15 -83 77 -149 138 -65 62 -135 128 -156 147 -20 19 -90 84 -154
144 -64 60 -138 129 -165 155 -27 25 -102 96 -166 156 -135 126 -149 140 -315
295 -68 63 -144 135 -169 158 -65 62 -267 251 -305 287 -18 17 -90 84 -161
150 -70 66 -146 137 -169 158 -22 22 -95 90 -161 152 -66 62 -138 129 -160
150 -22 21 -92 86 -155 145 -209 197 -224 210 -295 255 -73 46 -172 88 -250
105 -64 14 -191 18 -250 8z"/>
</g>
</svg>
